<?xml version="1.0" encoding="UTF-8"?>
<svg xmlns="http://www.w3.org/2000/svg" xmlns:xlink="http://www.w3.org/1999/xlink" width="32px" height="32px" viewBox="0 0 32 32" version="1.1">
<g id="surface1">
<path style=" stroke:none;fill-rule:nonzero;fill:rgb(0%,0%,0%);fill-opacity:1;" d="M 0 0 C 10.558594 0 21.121094 0 32 0 C 32 10.558594 32 21.121094 32 32 C 21.441406 32 10.878906 32 0 32 C 0 21.441406 0 10.878906 0 0 Z M 0 0 "/>
<path style=" stroke:none;fill-rule:nonzero;fill:rgb(13.333334%,13.333334%,31.37255%);fill-opacity:1;" d="M 17.25 14.5 C 17.414062 14.5 17.578125 14.5 17.75 14.5 C 17.8125 14.695312 17.875 14.890625 17.9375 15.09375 C 18 14.953125 18.050781 14.820312 18.101562 14.671875 C 18.117188 14.617188 18.136719 14.558594 18.15625 14.5 C 18.34375 14.5 18.527344 14.5 18.71875 14.5 C 18.769531 14.953125 18.820312 15.40625 18.875 15.875 C 18.71875 15.875 18.566406 15.875 18.40625 15.875 C 18.378906 15.6875 18.371094 15.503906 18.375 15.3125 C 18.355469 15.3125 18.332031 15.3125 18.3125 15.3125 C 18.308594 15.347656 18.308594 15.347656 18.300781 15.378906 C 18.273438 15.546875 18.238281 15.710938 18.1875 15.875 C 18.042969 15.875 17.898438 15.875 17.75 15.875 C 17.683594 15.699219 17.621094 15.523438 17.5625 15.34375 C 17.542969 15.519531 17.519531 15.695312 17.5 15.875 C 17.367188 15.875 17.230469 15.875 17.09375 15.875 C 17.085938 15.625 17.113281 15.382812 17.144531 15.136719 C 17.15625 15.0625 17.164062 14.992188 17.171875 14.921875 C 17.175781 14.875 17.183594 14.828125 17.1875 14.785156 C 17.191406 14.761719 17.195312 14.742188 17.195312 14.71875 C 17.214844 14.570312 17.214844 14.570312 17.25 14.5 Z M 17.25 14.5 "/>
<path style=" stroke:none;fill-rule:nonzero;fill:rgb(63.529414%,27.843139%,21.568628%);fill-opacity:1;" d="M 15.589844 14.585938 C 15.777344 14.785156 15.792969 15.015625 15.789062 15.277344 C 15.773438 15.476562 15.738281 15.628906 15.605469 15.78125 C 15.34375 15.9375 15.042969 15.9375 14.75 15.867188 C 14.613281 15.820312 14.546875 15.746094 14.476562 15.625 C 14.367188 15.363281 14.359375 15.058594 14.460938 14.792969 C 14.515625 14.671875 14.566406 14.597656 14.6875 14.53125 C 14.976562 14.433594 15.320312 14.421875 15.589844 14.585938 Z M 15.589844 14.585938 "/>
<path style=" stroke:none;fill-rule:nonzero;fill:rgb(41.960785%,18.82353%,26.274511%);fill-opacity:1;" d="M 13.0625 14.5 C 13.46875 14.5 13.46875 14.5 13.558594 14.566406 C 13.574219 14.597656 13.589844 14.628906 13.609375 14.65625 C 13.636719 14.703125 13.636719 14.703125 13.664062 14.746094 C 13.679688 14.777344 13.699219 14.8125 13.71875 14.84375 C 13.769531 14.914062 13.820312 14.988281 13.875 15.0625 C 13.886719 14.875 13.894531 14.691406 13.90625 14.5 C 14.039062 14.5 14.175781 14.5 14.3125 14.5 C 14.3125 14.953125 14.3125 15.40625 14.3125 15.875 C 13.9375 15.875 13.9375 15.875 13.820312 15.761719 C 13.789062 15.714844 13.757812 15.664062 13.730469 15.617188 C 13.707031 15.578125 13.707031 15.578125 13.683594 15.539062 C 13.652344 15.496094 13.625 15.449219 13.597656 15.402344 C 13.566406 15.351562 13.535156 15.300781 13.5 15.25 C 13.488281 15.457031 13.480469 15.664062 13.46875 15.875 C 13.335938 15.875 13.199219 15.875 13.0625 15.875 C 13.0625 15.421875 13.0625 14.96875 13.0625 14.5 Z M 13.0625 14.5 "/>
<path style=" stroke:none;fill-rule:nonzero;fill:rgb(90.196079%,55.686277%,27.450982%);fill-opacity:1;" d="M 15.84375 14.5 C 15.988281 14.5 16.132812 14.5 16.28125 14.5 C 16.292969 14.828125 16.300781 15.160156 16.3125 15.5 C 16.457031 15.578125 16.457031 15.578125 16.5625 15.53125 C 16.597656 15.425781 16.601562 15.335938 16.605469 15.222656 C 16.605469 15.203125 16.605469 15.183594 16.605469 15.160156 C 16.609375 15.09375 16.609375 15.027344 16.609375 14.960938 C 16.613281 14.917969 16.613281 14.875 16.617188 14.828125 C 16.617188 14.71875 16.621094 14.609375 16.625 14.5 C 16.769531 14.5 16.914062 14.5 17.0625 14.5 C 17.066406 14.636719 17.066406 14.777344 17.066406 14.914062 C 17.066406 14.960938 17.070312 15.007812 17.070312 15.054688 C 17.070312 15.125 17.070312 15.191406 17.070312 15.261719 C 17.070312 15.300781 17.074219 15.339844 17.074219 15.382812 C 17.058594 15.542969 17.011719 15.660156 16.917969 15.789062 C 16.695312 15.949219 16.410156 15.914062 16.15625 15.875 C 16.035156 15.832031 15.988281 15.808594 15.914062 15.703125 C 15.84375 15.558594 15.839844 15.433594 15.839844 15.269531 C 15.839844 15.246094 15.839844 15.226562 15.839844 15.203125 C 15.839844 15.132812 15.839844 15.0625 15.84375 14.992188 C 15.84375 14.945312 15.84375 14.898438 15.84375 14.847656 C 15.84375 14.734375 15.84375 14.617188 15.84375 14.5 Z M 15.84375 14.5 "/>
<path style=" stroke:none;fill-rule:nonzero;fill:rgb(44.313726%,22.352941%,30.19608%);fill-opacity:1;" d="M 17.25 14.5 C 17.414062 14.5 17.578125 14.5 17.75 14.5 C 17.820312 14.710938 17.820312 14.710938 17.800781 14.855469 C 17.796875 14.894531 17.796875 14.894531 17.789062 14.9375 C 17.785156 14.96875 17.785156 14.96875 17.78125 15 C 17.746094 14.992188 17.710938 14.988281 17.675781 14.980469 C 17.636719 14.976562 17.601562 14.972656 17.5625 14.96875 C 17.480469 15.050781 17.484375 15.109375 17.46875 15.21875 C 17.511719 15.238281 17.550781 15.261719 17.59375 15.28125 C 17.582031 15.300781 17.574219 15.324219 17.5625 15.34375 C 17.550781 15.433594 17.539062 15.523438 17.53125 15.613281 C 17.527344 15.636719 17.523438 15.664062 17.519531 15.6875 C 17.515625 15.75 17.507812 15.8125 17.5 15.875 C 17.367188 15.875 17.230469 15.875 17.09375 15.875 C 17.085938 15.625 17.113281 15.382812 17.144531 15.136719 C 17.15625 15.0625 17.164062 14.992188 17.171875 14.921875 C 17.175781 14.875 17.183594 14.828125 17.1875 14.785156 C 17.191406 14.761719 17.195312 14.742188 17.195312 14.71875 C 17.214844 14.570312 17.214844 14.570312 17.25 14.5 Z M 17.25 14.5 "/>
<path style=" stroke:none;fill-rule:nonzero;fill:rgb(18.039216%,9.803922%,17.647059%);fill-opacity:1;" d="M 13.0625 14.5 C 13.195312 14.5 13.332031 14.5 13.46875 14.5 C 13.570312 14.609375 13.570312 14.609375 13.625 14.71875 C 13.589844 14.8125 13.574219 14.839844 13.480469 14.882812 C 13.457031 14.890625 13.429688 14.898438 13.40625 14.90625 C 13.402344 14.941406 13.398438 14.972656 13.394531 15.007812 C 13.378906 15.105469 13.363281 15.167969 13.3125 15.25 C 13.34375 15.25 13.375 15.25 13.40625 15.25 C 13.488281 15.371094 13.476562 15.496094 13.472656 15.632812 C 13.472656 15.65625 13.472656 15.679688 13.472656 15.703125 C 13.472656 15.761719 13.46875 15.816406 13.46875 15.875 C 13.335938 15.875 13.199219 15.875 13.0625 15.875 C 13.0625 15.421875 13.0625 14.96875 13.0625 14.5 Z M 13.0625 14.5 "/>
<path style=" stroke:none;fill-rule:nonzero;fill:rgb(99.215686%,96.078432%,52.549022%);fill-opacity:1;" d="M 15.84375 14.5 C 15.988281 14.5 16.132812 14.5 16.28125 14.5 C 16.292969 14.851562 16.300781 15.203125 16.3125 15.5625 C 16.03125 15.6875 16.03125 15.6875 15.96875 15.6875 C 15.957031 15.707031 15.949219 15.730469 15.9375 15.75 C 15.8125 15.503906 15.832031 15.253906 15.835938 14.984375 C 15.839844 14.9375 15.839844 14.890625 15.839844 14.84375 C 15.839844 14.730469 15.84375 14.613281 15.84375 14.5 Z M 15.84375 14.5 "/>
<path style=" stroke:none;fill-rule:nonzero;fill:rgb(97.647059%,70.588237%,27.450982%);fill-opacity:1;" d="M 15.46875 14.625 C 15.558594 14.65625 15.640625 14.695312 15.71875 14.75 C 15.832031 15.015625 15.8125 15.351562 15.71875 15.621094 C 15.65625 15.75 15.5625 15.816406 15.429688 15.875 C 15.375 15.875 15.375 15.875 15.28125 15.8125 C 15.230469 15.789062 15.175781 15.769531 15.125 15.75 C 15.15625 15.734375 15.15625 15.734375 15.1875 15.71875 C 15.15625 15.6875 15.125 15.65625 15.09375 15.625 C 15.082031 15.65625 15.074219 15.6875 15.0625 15.71875 C 15.050781 15.675781 15.042969 15.636719 15.03125 15.59375 C 15.050781 15.589844 15.070312 15.582031 15.089844 15.578125 C 15.117188 15.570312 15.144531 15.5625 15.171875 15.554688 C 15.195312 15.546875 15.222656 15.539062 15.246094 15.53125 C 15.269531 15.519531 15.289062 15.511719 15.3125 15.5 C 15.375 15.308594 15.359375 15.074219 15.328125 14.875 C 15.3125 14.785156 15.316406 14.738281 15.34375 14.65625 C 15.386719 14.667969 15.425781 14.675781 15.46875 14.6875 C 15.46875 14.667969 15.46875 14.644531 15.46875 14.625 Z M 15.46875 14.625 "/>
<path style=" stroke:none;fill-rule:nonzero;fill:rgb(1.960784%,0%,0.392157%);fill-opacity:1;" d="M 15.21875 14.78125 C 15.3125 14.851562 15.339844 14.890625 15.375 15 C 15.378906 15.066406 15.382812 15.132812 15.382812 15.199219 C 15.382812 15.234375 15.382812 15.269531 15.386719 15.304688 C 15.375 15.417969 15.351562 15.476562 15.28125 15.5625 C 15.152344 15.59375 15.070312 15.601562 14.941406 15.570312 C 14.859375 15.523438 14.847656 15.496094 14.8125 15.40625 C 14.804688 15.304688 14.804688 15.304688 14.804688 15.1875 C 14.800781 15.152344 14.800781 15.113281 14.800781 15.074219 C 14.8125 14.960938 14.835938 14.902344 14.90625 14.8125 C 15.007812 14.761719 15.109375 14.765625 15.21875 14.78125 Z M 15.21875 14.78125 "/>
<path style=" stroke:none;fill-rule:nonzero;fill:rgb(36.470589%,21.960784%,34.509805%);fill-opacity:1;" d="M 17.8125 14.78125 C 17.882812 14.882812 17.90625 14.976562 17.9375 15.09375 C 17.957031 15.082031 17.980469 15.074219 18 15.0625 C 18.003906 15.085938 18.007812 15.109375 18.015625 15.132812 C 18.03125 15.222656 18.03125 15.222656 18.0625 15.3125 C 18.019531 15.324219 17.980469 15.332031 17.9375 15.34375 C 17.9375 15.414062 17.9375 15.488281 17.9375 15.5625 C 17.96875 15.574219 18 15.582031 18.03125 15.59375 C 18.0625 15.625 18.09375 15.65625 18.125 15.6875 C 18.144531 15.699219 18.167969 15.707031 18.1875 15.71875 C 18.199219 15.738281 18.207031 15.761719 18.21875 15.78125 C 18.207031 15.8125 18.199219 15.84375 18.1875 15.875 C 18.042969 15.875 17.898438 15.875 17.75 15.875 C 17.582031 15.441406 17.582031 15.441406 17.59375 15.25 C 17.550781 15.238281 17.511719 15.230469 17.46875 15.21875 C 17.457031 15.046875 17.457031 15.046875 17.515625 14.972656 C 17.53125 14.960938 17.546875 14.949219 17.5625 14.9375 C 17.632812 14.957031 17.707031 14.980469 17.78125 15 C 17.792969 14.929688 17.800781 14.855469 17.8125 14.78125 Z M 17.8125 14.78125 "/>
<path style=" stroke:none;fill-rule:nonzero;fill:rgb(24.705882%,16.078432%,32.549021%);fill-opacity:1;" d="M 18.125 14.5625 C 18.234375 14.578125 18.332031 14.589844 18.4375 14.625 C 18.4375 14.65625 18.4375 14.6875 18.4375 14.71875 C 18.480469 14.730469 18.519531 14.738281 18.5625 14.75 C 18.5625 14.769531 18.5625 14.792969 18.5625 14.8125 C 18.59375 14.8125 18.625 14.8125 18.65625 14.8125 C 18.644531 14.84375 18.636719 14.875 18.625 14.90625 C 18.5625 14.925781 18.5 14.949219 18.4375 14.96875 C 18.40625 15.015625 18.40625 15.015625 18.375 15.0625 C 18.355469 15.0625 18.332031 15.0625 18.3125 15.0625 C 18.3125 15.09375 18.3125 15.125 18.3125 15.15625 C 18.292969 15.167969 18.269531 15.175781 18.25 15.1875 C 18.1875 15.304688 18.183594 15.371094 18.21875 15.5 C 18.253906 15.644531 18.253906 15.644531 18.21875 15.75 C 18.175781 15.738281 18.136719 15.730469 18.09375 15.71875 C 18.09375 15.699219 18.09375 15.675781 18.09375 15.65625 C 18.0625 15.644531 18.03125 15.636719 18 15.625 C 17.9375 15.5625 17.9375 15.5625 17.933594 15.449219 C 17.933594 15.414062 17.9375 15.378906 17.9375 15.34375 C 17.96875 15.332031 18 15.324219 18.03125 15.3125 C 18.019531 15.292969 18.011719 15.269531 18 15.25 C 17.980469 15 18.042969 14.796875 18.125 14.5625 Z M 18.125 14.5625 "/>
<path style=" stroke:none;fill-rule:nonzero;fill:rgb(29.803923%,14.901961%,27.058825%);fill-opacity:1;" d="M 13.625 14.75 C 13.714844 14.859375 13.796875 14.972656 13.875 15.09375 C 13.855469 15.113281 13.832031 15.136719 13.8125 15.15625 C 13.84375 15.167969 13.875 15.175781 13.90625 15.1875 C 13.90625 15.28125 13.90625 15.28125 13.828125 15.367188 C 13.789062 15.402344 13.789062 15.402344 13.75 15.4375 C 13.769531 15.460938 13.792969 15.488281 13.8125 15.511719 C 13.875 15.59375 13.875 15.59375 13.875 15.65625 C 13.976562 15.644531 14.082031 15.636719 14.1875 15.625 C 14.207031 15.65625 14.230469 15.6875 14.25 15.71875 C 14.261719 15.636719 14.269531 15.554688 14.28125 15.46875 C 14.292969 15.46875 14.300781 15.46875 14.3125 15.46875 C 14.3125 15.601562 14.3125 15.738281 14.3125 15.875 C 14.082031 15.921875 14.082031 15.921875 13.9375 15.875 C 13.796875 15.742188 13.695312 15.570312 13.597656 15.402344 C 13.566406 15.351562 13.535156 15.300781 13.5 15.25 C 13.480469 15.292969 13.457031 15.332031 13.4375 15.375 C 13.425781 15.332031 13.417969 15.292969 13.40625 15.25 C 13.375 15.25 13.34375 15.25 13.3125 15.25 C 13.332031 15.167969 13.355469 15.082031 13.375 15 C 13.378906 14.976562 13.382812 14.957031 13.386719 14.933594 C 13.40625 14.875 13.40625 14.875 13.5 14.820312 C 13.53125 14.808594 13.5625 14.796875 13.59375 14.78125 C 13.605469 14.769531 13.613281 14.761719 13.625 14.75 Z M 13.625 14.75 "/>
<path style=" stroke:none;fill-rule:nonzero;fill:rgb(50.196081%,23.137255%,23.137255%);fill-opacity:1;" d="M 15.15625 14.5 C 15.15625 14.519531 15.15625 14.542969 15.15625 14.5625 C 15.132812 14.570312 15.109375 14.578125 15.085938 14.585938 C 15 14.625 14.96875 14.65625 14.90625 14.71875 C 14.84375 14.753906 14.84375 14.753906 14.78125 14.78125 C 14.75 14.796875 14.75 14.796875 14.71875 14.8125 C 14.699219 14.90625 14.699219 14.90625 14.6875 15 C 14.71875 15 14.75 15 14.78125 15 C 14.78125 15.042969 14.78125 15.082031 14.78125 15.125 C 14.761719 15.128906 14.746094 15.132812 14.726562 15.136719 C 14.703125 15.140625 14.683594 15.144531 14.65625 15.148438 C 14.636719 15.15625 14.613281 15.160156 14.589844 15.164062 C 14.570312 15.171875 14.550781 15.179688 14.53125 15.1875 C 14.519531 15.21875 14.511719 15.25 14.5 15.28125 C 14.542969 15.28125 14.582031 15.28125 14.625 15.28125 C 14.621094 15.296875 14.613281 15.3125 14.609375 15.328125 C 14.589844 15.433594 14.605469 15.523438 14.625 15.625 C 14.652344 15.628906 14.652344 15.628906 14.679688 15.632812 C 14.777344 15.667969 14.832031 15.738281 14.90625 15.8125 C 14.953125 15.828125 14.953125 15.828125 15 15.84375 C 14.988281 15.863281 14.980469 15.886719 14.96875 15.90625 C 14.792969 15.878906 14.65625 15.851562 14.53125 15.71875 C 14.382812 15.460938 14.359375 15.164062 14.429688 14.875 C 14.484375 14.722656 14.539062 14.613281 14.6875 14.53125 C 14.851562 14.46875 14.984375 14.464844 15.15625 14.5 Z M 15.15625 14.5 "/>
<path style=" stroke:none;fill-rule:nonzero;fill:rgb(80.392158%,42.352942%,25.882354%);fill-opacity:1;" d="M 16.6875 15.3125 C 16.800781 15.332031 16.914062 15.355469 17.03125 15.375 C 17.070312 15.53125 17.039062 15.578125 16.96875 15.71875 C 16.882812 15.839844 16.789062 15.871094 16.648438 15.898438 C 16.425781 15.917969 16.203125 15.90625 16 15.8125 C 16.109375 15.75 16.214844 15.71875 16.34375 15.71875 C 16.34375 15.699219 16.34375 15.675781 16.34375 15.65625 C 16.453125 15.675781 16.550781 15.707031 16.65625 15.75 C 16.65625 15.730469 16.65625 15.707031 16.65625 15.6875 C 16.636719 15.675781 16.613281 15.667969 16.59375 15.65625 C 16.613281 15.636719 16.636719 15.613281 16.65625 15.59375 C 16.65625 15.5625 16.65625 15.53125 16.65625 15.5 C 16.675781 15.5 16.699219 15.5 16.71875 15.5 C 16.699219 15.480469 16.675781 15.457031 16.65625 15.4375 C 16.667969 15.394531 16.675781 15.355469 16.6875 15.3125 Z M 16.6875 15.3125 "/>
<path style=" stroke:none;fill-rule:nonzero;fill:rgb(78.039217%,40.000001%,22.745098%);fill-opacity:1;" d="M 16.625 14.5 C 16.769531 14.5 16.914062 14.5 17.0625 14.5 C 17.0625 14.695312 17.0625 14.890625 17.0625 15.09375 C 16.949219 15.082031 16.835938 15.074219 16.71875 15.0625 C 16.71875 15.042969 16.71875 15.019531 16.71875 15 C 16.6875 15 16.65625 15 16.625 15 C 16.625 14.835938 16.625 14.671875 16.625 14.5 Z M 16.625 14.5 "/>
<path style=" stroke:none;fill-rule:nonzero;fill:rgb(11.764706%,17.647059%,38.039216%);fill-opacity:1;" d="M 18.59375 15.25 C 18.625 15.25 18.65625 15.25 18.6875 15.25 C 18.675781 15.34375 18.667969 15.4375 18.65625 15.53125 C 18.675781 15.53125 18.699219 15.53125 18.71875 15.53125 C 18.738281 15.46875 18.761719 15.40625 18.78125 15.34375 C 18.792969 15.34375 18.800781 15.34375 18.8125 15.34375 C 18.832031 15.519531 18.855469 15.695312 18.875 15.875 C 18.71875 15.875 18.566406 15.875 18.40625 15.875 C 18.378906 15.6875 18.371094 15.503906 18.375 15.3125 C 18.492188 15.277344 18.492188 15.277344 18.5625 15.3125 C 18.574219 15.292969 18.582031 15.269531 18.59375 15.25 Z M 18.59375 15.25 "/>
<path style=" stroke:none;fill-rule:nonzero;fill:rgb(94.117647%,72.156864%,30.588236%);fill-opacity:1;" d="M 15.84375 14.5 C 15.988281 14.5 16.132812 14.5 16.28125 14.5 C 16.28125 14.6875 16.28125 14.871094 16.28125 15.0625 C 16.25 15.0625 16.21875 15.0625 16.1875 15.0625 C 16.175781 15.042969 16.167969 15.019531 16.15625 15 C 16.089844 14.988281 16.089844 14.988281 16.015625 14.984375 C 15.878906 14.972656 15.878906 14.972656 15.84375 14.9375 C 15.839844 14.792969 15.84375 14.644531 15.84375 14.5 Z M 15.84375 14.5 "/>
<path style=" stroke:none;fill-rule:nonzero;fill:rgb(98.431373%,74.901962%,30.19608%);fill-opacity:1;" d="M 15.71875 14.90625 C 15.816406 15.054688 15.796875 15.203125 15.78125 15.375 C 15.757812 15.480469 15.726562 15.585938 15.6875 15.6875 C 15.667969 15.6875 15.644531 15.6875 15.625 15.6875 C 15.625 15.667969 15.625 15.644531 15.625 15.625 C 15.589844 15.617188 15.589844 15.617188 15.550781 15.609375 C 15.46875 15.59375 15.46875 15.59375 15.40625 15.5625 C 15.40625 15.460938 15.40625 15.355469 15.40625 15.25 C 15.4375 15.25 15.46875 15.25 15.5 15.25 C 15.511719 15.167969 15.519531 15.085938 15.53125 15 C 15.550781 15 15.574219 15 15.59375 15 C 15.59375 14.980469 15.59375 14.957031 15.59375 14.9375 C 15.636719 14.925781 15.675781 14.917969 15.71875 14.90625 Z M 15.71875 14.90625 "/>
<path style=" stroke:none;fill-rule:nonzero;fill:rgb(76.47059%,34.901962%,36.862746%);fill-opacity:1;" d="M 17.15625 15.09375 C 17.199219 15.105469 17.238281 15.113281 17.28125 15.125 C 17.277344 15.15625 17.277344 15.15625 17.273438 15.183594 C 17.269531 15.210938 17.265625 15.234375 17.265625 15.261719 C 17.261719 15.285156 17.257812 15.3125 17.253906 15.339844 C 17.246094 15.40625 17.246094 15.40625 17.28125 15.46875 C 17.265625 15.535156 17.265625 15.535156 17.25 15.59375 C 17.273438 15.582031 17.296875 15.570312 17.320312 15.5625 C 17.40625 15.53125 17.40625 15.53125 17.53125 15.5625 C 17.519531 15.664062 17.511719 15.769531 17.5 15.875 C 17.367188 15.875 17.230469 15.875 17.09375 15.875 C 17.085938 15.609375 17.121094 15.355469 17.15625 15.09375 Z M 17.15625 15.09375 "/>
<path style=" stroke:none;fill-rule:nonzero;fill:rgb(35.686275%,27.450982%,43.921569%);fill-opacity:1;" d="M 17.625 15.40625 C 17.730469 15.429688 17.835938 15.464844 17.9375 15.5 C 17.9375 15.519531 17.9375 15.542969 17.9375 15.5625 C 17.96875 15.574219 18 15.582031 18.03125 15.59375 C 18.0625 15.625 18.09375 15.65625 18.125 15.6875 C 18.144531 15.699219 18.167969 15.707031 18.1875 15.71875 C 18.199219 15.738281 18.207031 15.761719 18.21875 15.78125 C 18.207031 15.8125 18.199219 15.84375 18.1875 15.875 C 18.042969 15.875 17.898438 15.875 17.75 15.875 C 17.6875 15.714844 17.644531 15.578125 17.625 15.40625 Z M 17.625 15.40625 "/>
<path style=" stroke:none;fill-rule:nonzero;fill:rgb(82.352942%,45.490196%,24.705882%);fill-opacity:1;" d="M 15 14.46875 C 15.449219 14.488281 15.449219 14.488281 15.59375 14.59375 C 15.636719 14.664062 15.636719 14.664062 15.65625 14.71875 C 15.621094 14.703125 15.621094 14.703125 15.585938 14.6875 C 15.5 14.644531 15.5 14.644531 15.40625 14.6875 C 15.386719 14.675781 15.363281 14.667969 15.34375 14.65625 C 15.34375 14.738281 15.34375 14.820312 15.34375 14.90625 C 15.328125 14.890625 15.3125 14.875 15.296875 14.859375 C 15.1875 14.792969 15.089844 14.789062 14.96875 14.8125 C 14.875 14.871094 14.875 14.871094 14.8125 14.9375 C 14.824219 14.867188 14.832031 14.792969 14.84375 14.71875 C 14.863281 14.714844 14.882812 14.714844 14.902344 14.710938 C 14.972656 14.691406 14.972656 14.691406 15.007812 14.625 C 15.015625 14.601562 15.023438 14.582031 15.03125 14.5625 C 15.074219 14.5625 15.113281 14.5625 15.15625 14.5625 C 15.15625 14.542969 15.15625 14.519531 15.15625 14.5 C 15.105469 14.5 15.054688 14.5 15 14.5 C 15 14.488281 15 14.480469 15 14.46875 Z M 15 14.46875 "/>
<path style=" stroke:none;fill-rule:nonzero;fill:rgb(9.019608%,7.058824%,15.686275%);fill-opacity:1;" d="M 13.0625 14.5 C 13.371094 14.484375 13.371094 14.484375 13.46875 14.5 C 13.527344 14.578125 13.527344 14.578125 13.5625 14.65625 C 13.542969 14.65625 13.519531 14.65625 13.5 14.65625 C 13.46875 14.707031 13.4375 14.761719 13.40625 14.8125 C 13.359375 14.867188 13.359375 14.867188 13.3125 14.90625 C 13.292969 14.90625 13.269531 14.90625 13.25 14.90625 C 13.25 14.875 13.25 14.84375 13.25 14.8125 C 13.21875 14.828125 13.21875 14.828125 13.1875 14.84375 C 13.167969 14.90625 13.167969 14.90625 13.15625 14.96875 C 13.125 14.957031 13.09375 14.949219 13.0625 14.9375 C 13.0625 14.792969 13.0625 14.648438 13.0625 14.5 Z M 13.0625 14.5 "/>
<path style=" stroke:none;fill-rule:nonzero;fill:rgb(54.901963%,23.137255%,21.960784%);fill-opacity:1;" d="M 15.15625 14.5 C 15.15625 14.519531 15.15625 14.542969 15.15625 14.5625 C 15.132812 14.570312 15.109375 14.578125 15.085938 14.585938 C 15 14.625 14.96875 14.65625 14.90625 14.71875 C 14.84375 14.753906 14.84375 14.753906 14.78125 14.78125 C 14.75 14.796875 14.75 14.796875 14.71875 14.8125 C 14.699219 14.90625 14.699219 14.90625 14.6875 15 C 14.71875 15 14.75 15 14.78125 15 C 14.78125 15.042969 14.78125 15.082031 14.78125 15.125 C 14.71875 15.125 14.65625 15.125 14.59375 15.125 C 14.609375 15.039062 14.628906 14.957031 14.65625 14.875 C 14.613281 14.875 14.574219 14.875 14.53125 14.875 C 14.53125 14.855469 14.53125 14.832031 14.53125 14.8125 C 14.511719 14.800781 14.488281 14.792969 14.46875 14.78125 C 14.570312 14.605469 14.664062 14.535156 14.859375 14.476562 C 14.960938 14.464844 15.054688 14.480469 15.15625 14.5 Z M 15.15625 14.5 "/>
<path style=" stroke:none;fill-rule:nonzero;fill:rgb(52.941179%,24.313726%,30.588236%);fill-opacity:1;" d="M 17.1875 14.84375 C 17.230469 14.863281 17.269531 14.886719 17.3125 14.90625 C 17.3125 14.925781 17.3125 14.949219 17.3125 14.96875 C 17.34375 14.96875 17.375 14.96875 17.40625 14.96875 C 17.410156 14.992188 17.414062 15.011719 17.417969 15.035156 C 17.421875 15.066406 17.429688 15.09375 17.433594 15.125 C 17.441406 15.164062 17.441406 15.164062 17.449219 15.210938 C 17.457031 15.234375 17.460938 15.257812 17.46875 15.28125 C 17.488281 15.292969 17.511719 15.300781 17.53125 15.3125 C 17.53125 15.394531 17.53125 15.476562 17.53125 15.5625 C 17.503906 15.5625 17.472656 15.5625 17.445312 15.5625 C 17.34375 15.558594 17.34375 15.558594 17.25 15.59375 C 17.25 15.570312 17.25 15.542969 17.25 15.519531 C 17.253906 15.4375 17.253906 15.4375 17.21875 15.375 C 17.230469 15.3125 17.230469 15.3125 17.25 15.246094 C 17.257812 15.210938 17.257812 15.210938 17.265625 15.175781 C 17.269531 15.160156 17.277344 15.144531 17.28125 15.125 C 17.238281 15.105469 17.199219 15.082031 17.15625 15.0625 C 17.167969 14.992188 17.175781 14.917969 17.1875 14.84375 Z M 17.1875 14.84375 "/>
<path style=" stroke:none;fill-rule:nonzero;fill:rgb(45.882353%,19.215687%,25.098041%);fill-opacity:1;" d="M 14.25 14.75 C 14.269531 14.761719 14.292969 14.769531 14.3125 14.78125 C 14.3125 15.007812 14.3125 15.234375 14.3125 15.46875 C 14.292969 15.480469 14.269531 15.488281 14.25 15.5 C 14.25 15.46875 14.25 15.4375 14.25 15.40625 C 14.230469 15.40625 14.207031 15.40625 14.1875 15.40625 C 14.1875 15.386719 14.1875 15.363281 14.1875 15.34375 C 14.15625 15.332031 14.125 15.324219 14.09375 15.3125 C 14.070312 15.25 14.070312 15.25 14.0625 15.1875 C 14.074219 15.175781 14.082031 15.167969 14.09375 15.15625 C 14.074219 15.136719 14.050781 15.113281 14.03125 15.09375 C 14.042969 15.0625 14.050781 15.03125 14.0625 15 C 14.050781 14.917969 14.050781 14.917969 14.03125 14.84375 C 14.082031 14.84375 14.132812 14.84375 14.1875 14.84375 C 14.1875 14.824219 14.1875 14.800781 14.1875 14.78125 C 14.207031 14.769531 14.230469 14.761719 14.25 14.75 Z M 14.25 14.75 "/>
<path style=" stroke:none;fill-rule:nonzero;fill:rgb(98.431373%,94.117647%,48.235294%);fill-opacity:1;" d="M 16.25 15.0625 C 16.261719 15.0625 16.269531 15.0625 16.28125 15.0625 C 16.292969 15.226562 16.300781 15.390625 16.3125 15.5625 C 16.039062 15.6875 16.039062 15.6875 15.96875 15.6875 C 15.957031 15.707031 15.949219 15.730469 15.9375 15.75 C 15.855469 15.628906 15.871094 15.515625 15.875 15.375 C 15.957031 15.375 16.039062 15.375 16.125 15.375 C 16.125 15.355469 16.125 15.332031 16.125 15.3125 C 16.144531 15.3125 16.167969 15.3125 16.1875 15.3125 C 16.1875 15.292969 16.1875 15.269531 16.1875 15.25 C 16.207031 15.25 16.230469 15.25 16.25 15.25 C 16.25 15.1875 16.25 15.125 16.25 15.0625 Z M 16.25 15.0625 "/>
<path style=" stroke:none;fill-rule:nonzero;fill:rgb(24.313726%,20.784314%,38.431373%);fill-opacity:1;" d="M 18.28125 14.9375 C 18.300781 14.949219 18.324219 14.957031 18.34375 14.96875 C 18.355469 15 18.363281 15.03125 18.375 15.0625 C 18.355469 15.0625 18.332031 15.0625 18.3125 15.0625 C 18.3125 15.09375 18.3125 15.125 18.3125 15.15625 C 18.28125 15.171875 18.28125 15.171875 18.25 15.1875 C 18.1875 15.304688 18.183594 15.371094 18.21875 15.5 C 18.253906 15.644531 18.253906 15.644531 18.21875 15.75 C 18.175781 15.738281 18.136719 15.730469 18.09375 15.71875 C 18.09375 15.699219 18.09375 15.675781 18.09375 15.65625 C 18.0625 15.644531 18.03125 15.636719 18 15.625 C 17.9375 15.5625 17.9375 15.5625 17.933594 15.449219 C 17.933594 15.414062 17.9375 15.378906 17.9375 15.34375 C 17.96875 15.332031 18 15.324219 18.03125 15.3125 C 18.050781 15.28125 18.074219 15.25 18.09375 15.21875 C 18.113281 15.195312 18.136719 15.167969 18.15625 15.140625 C 18.207031 15.074219 18.246094 15.015625 18.28125 14.9375 Z M 18.28125 14.9375 "/>
<path style=" stroke:none;fill-rule:nonzero;fill:rgb(58.823532%,22.745098%,18.82353%);fill-opacity:1;" d="M 16.625 14.5 C 16.769531 14.5 16.914062 14.5 17.0625 14.5 C 17.0625 14.632812 17.0625 14.769531 17.0625 14.90625 C 17.050781 14.886719 17.042969 14.863281 17.03125 14.84375 C 16.9375 14.824219 16.9375 14.824219 16.84375 14.8125 C 16.832031 14.78125 16.824219 14.75 16.8125 14.71875 C 16.75 14.71875 16.6875 14.71875 16.625 14.71875 C 16.625 14.648438 16.625 14.574219 16.625 14.5 Z M 16.625 14.5 "/>
<path style=" stroke:none;fill-rule:nonzero;fill:rgb(20.784314%,10.196079%,19.607843%);fill-opacity:1;" d="M 13.625 14.75 C 13.714844 14.851562 13.765625 14.925781 13.78125 15.0625 C 13.738281 15.0625 13.699219 15.0625 13.65625 15.0625 C 13.65625 15.042969 13.65625 15.019531 13.65625 15 C 13.636719 15 13.613281 15 13.59375 15 C 13.589844 15.023438 13.585938 15.050781 13.582031 15.078125 C 13.574219 15.101562 13.570312 15.128906 13.5625 15.15625 C 13.53125 15.171875 13.53125 15.171875 13.5 15.1875 C 13.480469 15.28125 13.480469 15.28125 13.46875 15.375 C 13.449219 15.332031 13.425781 15.292969 13.40625 15.25 C 13.375 15.25 13.34375 15.25 13.3125 15.25 C 13.332031 15.167969 13.355469 15.082031 13.375 15 C 13.378906 14.976562 13.382812 14.957031 13.386719 14.933594 C 13.40625 14.875 13.40625 14.875 13.5 14.820312 C 13.53125 14.808594 13.5625 14.796875 13.59375 14.78125 C 13.605469 14.769531 13.613281 14.761719 13.625 14.75 Z M 13.625 14.75 "/>
<path style=" stroke:none;fill-rule:nonzero;fill:rgb(8.627451%,0.784314%,0.784314%);fill-opacity:1;" d="M 17.0625 14.5 C 17.074219 14.5 17.082031 14.5 17.09375 14.5 C 17.09375 14.675781 17.09375 14.851562 17.09375 15.03125 C 17.113281 15.03125 17.136719 15.03125 17.15625 15.03125 C 17.15625 15.003906 17.15625 14.976562 17.15625 14.945312 C 17.15625 14.890625 17.15625 14.890625 17.15625 14.835938 C 17.152344 14.796875 17.152344 14.761719 17.152344 14.722656 C 17.15625 14.625 17.15625 14.625 17.1875 14.53125 C 17.207031 14.542969 17.230469 14.550781 17.25 14.5625 C 17.199219 14.996094 17.148438 15.429688 17.09375 15.875 C 17.207031 15.875 17.320312 15.875 17.4375 15.875 C 17.4375 15.886719 17.4375 15.894531 17.4375 15.90625 C 17.195312 15.941406 17.195312 15.941406 17.0625 15.90625 C 17.03125 15.59375 17.03125 15.289062 17.046875 14.976562 C 17.046875 14.929688 17.046875 14.882812 17.050781 14.835938 C 17.054688 14.722656 17.058594 14.613281 17.0625 14.5 Z M 17.0625 14.5 "/>
<path style=" stroke:none;fill-rule:nonzero;fill:rgb(13.725491%,21.568628%,42.745098%);fill-opacity:1;" d="M 18.78125 15.34375 C 18.792969 15.34375 18.800781 15.34375 18.8125 15.34375 C 18.832031 15.519531 18.855469 15.695312 18.875 15.875 C 18.742188 15.875 18.605469 15.875 18.46875 15.875 C 18.457031 15.8125 18.449219 15.75 18.4375 15.6875 C 18.519531 15.699219 18.601562 15.707031 18.6875 15.71875 C 18.683594 15.679688 18.683594 15.679688 18.679688 15.636719 C 18.6875 15.515625 18.722656 15.445312 18.78125 15.34375 Z M 18.78125 15.34375 "/>
<path style=" stroke:none;fill-rule:nonzero;fill:rgb(24.313726%,13.333334%,19.607843%);fill-opacity:1;" d="M 14.28125 15.46875 C 14.292969 15.46875 14.300781 15.46875 14.3125 15.46875 C 14.3125 15.601562 14.3125 15.738281 14.3125 15.875 C 13.96875 15.902344 13.96875 15.902344 13.878906 15.828125 C 13.835938 15.765625 13.835938 15.765625 13.78125 15.65625 C 13.792969 15.636719 13.800781 15.613281 13.8125 15.59375 C 13.832031 15.59375 13.855469 15.59375 13.875 15.59375 C 13.875 15.613281 13.875 15.636719 13.875 15.65625 C 13.976562 15.644531 14.082031 15.636719 14.1875 15.625 C 14.21875 15.671875 14.21875 15.671875 14.25 15.71875 C 14.261719 15.636719 14.269531 15.554688 14.28125 15.46875 Z M 14.28125 15.46875 "/>
<path style=" stroke:none;fill-rule:nonzero;fill:rgb(5.882353%,3.529412%,0.784314%);fill-opacity:1;" d="M 15.8125 14.5 C 15.824219 14.5 15.832031 14.5 15.84375 14.5 C 15.84375 14.53125 15.84375 14.558594 15.847656 14.589844 C 15.847656 14.699219 15.851562 14.808594 15.855469 14.917969 C 15.855469 14.964844 15.859375 15.011719 15.859375 15.0625 C 15.859375 15.128906 15.863281 15.199219 15.863281 15.265625 C 15.867188 15.308594 15.867188 15.347656 15.867188 15.390625 C 15.875 15.484375 15.886719 15.566406 15.90625 15.65625 C 15.839844 15.640625 15.78125 15.625 15.71875 15.59375 C 15.726562 15.550781 15.726562 15.550781 15.734375 15.507812 C 15.78125 15.164062 15.761719 14.855469 15.5625 14.5625 C 15.667969 14.609375 15.734375 14.667969 15.8125 14.75 C 15.804688 14.695312 15.804688 14.695312 15.796875 14.640625 C 15.789062 14.605469 15.785156 14.570312 15.78125 14.53125 C 15.792969 14.519531 15.800781 14.511719 15.8125 14.5 Z M 15.8125 14.5 "/>
<path style=" stroke:none;fill-rule:nonzero;fill:rgb(66.666669%,40.000001%,30.588236%);fill-opacity:1;" d="M 16.6875 15.3125 C 16.800781 15.332031 16.914062 15.355469 17.03125 15.375 C 17.070312 15.53125 17.039062 15.578125 16.96875 15.71875 C 16.90625 15.796875 16.90625 15.796875 16.84375 15.84375 C 16.824219 15.84375 16.800781 15.84375 16.78125 15.84375 C 16.78125 15.824219 16.78125 15.800781 16.78125 15.78125 C 16.800781 15.78125 16.824219 15.78125 16.84375 15.78125 C 16.855469 15.730469 16.863281 15.679688 16.875 15.625 C 16.804688 15.574219 16.730469 15.523438 16.65625 15.46875 C 16.667969 15.417969 16.675781 15.367188 16.6875 15.3125 Z M 16.6875 15.3125 "/>
<path style=" stroke:none;fill-rule:nonzero;fill:rgb(96.862745%,62.352943%,24.313726%);fill-opacity:1;" d="M 15.84375 14.5 C 15.988281 14.5 16.132812 14.5 16.28125 14.5 C 16.28125 14.6875 16.28125 14.871094 16.28125 15.0625 C 16.269531 15.0625 16.261719 15.0625 16.25 15.0625 C 16.246094 15.03125 16.242188 15 16.238281 14.96875 C 16.230469 14.9375 16.226562 14.90625 16.21875 14.875 C 16.199219 14.863281 16.175781 14.855469 16.15625 14.84375 C 16.167969 14.800781 16.175781 14.761719 16.1875 14.71875 C 16.15625 14.71875 16.125 14.71875 16.09375 14.71875 C 16.09375 14.699219 16.09375 14.675781 16.09375 14.65625 C 16.042969 14.65625 15.992188 14.65625 15.9375 14.65625 C 15.925781 14.675781 15.917969 14.699219 15.90625 14.71875 C 15.886719 14.648438 15.863281 14.574219 15.84375 14.5 Z M 15.84375 14.5 "/>
<path style=" stroke:none;fill-rule:nonzero;fill:rgb(26.666668%,14.117648%,20.784314%);fill-opacity:1;" d="M 13.90625 14.5 C 14.039062 14.5 14.175781 14.5 14.3125 14.5 C 14.28125 14.625 14.28125 14.625 14.210938 14.671875 C 14.125 14.71875 14.125 14.71875 14.039062 14.765625 C 13.964844 14.804688 13.964844 14.804688 13.945312 14.882812 C 13.941406 14.898438 13.941406 14.917969 13.9375 14.9375 C 13.957031 14.949219 13.980469 14.957031 14 14.96875 C 13.980469 14.96875 13.957031 14.96875 13.9375 14.96875 C 13.925781 14.988281 13.917969 15.011719 13.90625 15.03125 C 13.90625 14.855469 13.90625 14.679688 13.90625 14.5 Z M 13.90625 14.5 "/>
<path style=" stroke:none;fill-rule:nonzero;fill:rgb(70.588237%,36.078432%,24.313726%);fill-opacity:1;" d="M 14.90625 15.5625 C 14.949219 15.5625 14.988281 15.5625 15.03125 15.5625 C 15.042969 15.605469 15.050781 15.644531 15.0625 15.6875 C 15.074219 15.667969 15.082031 15.644531 15.09375 15.625 C 15.125 15.636719 15.15625 15.644531 15.1875 15.65625 C 15.1875 15.6875 15.1875 15.71875 15.1875 15.75 C 15.238281 15.761719 15.289062 15.769531 15.34375 15.78125 C 15.355469 15.8125 15.363281 15.84375 15.375 15.875 C 15.25 15.90625 15.128906 15.910156 15 15.90625 C 14.980469 15.855469 14.957031 15.804688 14.9375 15.75 C 14.917969 15.75 14.894531 15.75 14.875 15.75 C 14.875 15.71875 14.875 15.6875 14.875 15.65625 C 14.84375 15.644531 14.8125 15.636719 14.78125 15.625 C 14.824219 15.625 14.863281 15.625 14.90625 15.625 C 14.90625 15.605469 14.90625 15.582031 14.90625 15.5625 Z M 14.90625 15.5625 "/>
<path style=" stroke:none;fill-rule:nonzero;fill:rgb(99.607843%,92.54902%,41.176471%);fill-opacity:1;" d="M 15.71875 14.90625 C 15.816406 15.054688 15.796875 15.203125 15.78125 15.375 C 15.757812 15.480469 15.726562 15.585938 15.6875 15.6875 C 15.667969 15.6875 15.644531 15.6875 15.625 15.6875 C 15.636719 15.625 15.644531 15.5625 15.65625 15.5 C 15.675781 15.5 15.699219 15.5 15.71875 15.5 C 15.71875 15.46875 15.71875 15.4375 15.71875 15.40625 C 15.699219 15.40625 15.675781 15.40625 15.65625 15.40625 C 15.589844 15.304688 15.585938 15.28125 15.589844 15.164062 C 15.589844 15.140625 15.589844 15.117188 15.589844 15.089844 C 15.59375 15.070312 15.59375 15.050781 15.59375 15.03125 C 15.636719 15.019531 15.675781 15.011719 15.71875 15 C 15.71875 14.96875 15.71875 14.9375 15.71875 14.90625 Z M 15.71875 14.90625 "/>
<path style=" stroke:none;fill-rule:nonzero;fill:rgb(40.000001%,20%,25.490198%);fill-opacity:1;" d="M 17.25 14.5 C 17.414062 14.5 17.578125 14.5 17.75 14.5 C 17.761719 14.5625 17.769531 14.625 17.78125 14.6875 C 17.601562 14.722656 17.601562 14.722656 17.53125 14.6875 C 17.53125 14.667969 17.53125 14.644531 17.53125 14.625 C 17.550781 14.625 17.574219 14.625 17.59375 14.625 C 17.59375 14.605469 17.59375 14.582031 17.59375 14.5625 C 17.441406 14.601562 17.441406 14.601562 17.34375 14.71875 C 17.300781 14.71875 17.261719 14.71875 17.21875 14.71875 C 17.230469 14.648438 17.238281 14.574219 17.25 14.5 Z M 17.25 14.5 "/>
<path style=" stroke:none;fill-rule:nonzero;fill:rgb(49.803922%,23.529412%,26.274511%);fill-opacity:1;" d="M 17.59375 14.5625 C 17.59375 14.582031 17.59375 14.605469 17.59375 14.625 C 17.574219 14.625 17.550781 14.625 17.53125 14.625 C 17.539062 14.6875 17.539062 14.6875 17.5625 14.75 C 17.59375 14.761719 17.625 14.769531 17.65625 14.78125 C 17.644531 14.800781 17.636719 14.824219 17.625 14.84375 C 17.53125 14.84375 17.4375 14.84375 17.34375 14.84375 C 17.355469 14.886719 17.363281 14.925781 17.375 14.96875 C 17.296875 14.945312 17.296875 14.945312 17.21875 14.90625 C 17.1875 14.8125 17.1875 14.8125 17.21875 14.71875 C 17.261719 14.707031 17.300781 14.699219 17.34375 14.6875 C 17.363281 14.65625 17.386719 14.625 17.40625 14.59375 C 17.5 14.5625 17.5 14.5625 17.59375 14.5625 Z M 17.59375 14.5625 "/>
<path style=" stroke:none;fill-rule:nonzero;fill:rgb(86.666667%,46.666667%,26.666668%);fill-opacity:1;" d="M 15.25 15.625 C 15.292969 15.605469 15.332031 15.582031 15.375 15.5625 C 15.375 15.582031 15.375 15.605469 15.375 15.625 C 15.46875 15.640625 15.46875 15.640625 15.5625 15.65625 C 15.554688 15.730469 15.554688 15.730469 15.53125 15.8125 C 15.457031 15.859375 15.457031 15.859375 15.375 15.875 C 15.34375 15.855469 15.3125 15.832031 15.28125 15.8125 C 15.230469 15.789062 15.175781 15.769531 15.125 15.75 C 15.144531 15.738281 15.167969 15.730469 15.1875 15.71875 C 15.15625 15.6875 15.125 15.65625 15.09375 15.625 C 15.082031 15.65625 15.074219 15.6875 15.0625 15.71875 C 15.050781 15.675781 15.042969 15.636719 15.03125 15.59375 C 15.140625 15.554688 15.144531 15.554688 15.25 15.625 Z M 15.25 15.625 "/>
<path style=" stroke:none;fill-rule:nonzero;fill:rgb(42.352942%,19.215687%,21.176471%);fill-opacity:1;" d="M 14.4375 15.34375 C 14.449219 15.375 14.457031 15.40625 14.46875 15.4375 C 14.488281 15.4375 14.511719 15.4375 14.53125 15.4375 C 14.550781 15.5 14.574219 15.5625 14.59375 15.625 C 14.617188 15.625 14.640625 15.628906 14.664062 15.632812 C 14.777344 15.664062 14.824219 15.726562 14.90625 15.8125 C 14.9375 15.824219 14.96875 15.832031 15 15.84375 C 14.988281 15.863281 14.980469 15.886719 14.96875 15.90625 C 14.792969 15.878906 14.65625 15.851562 14.53125 15.71875 C 14.464844 15.605469 14.421875 15.503906 14.40625 15.375 C 14.417969 15.363281 14.425781 15.355469 14.4375 15.34375 Z M 14.4375 15.34375 "/>
<path style=" stroke:none;fill-rule:nonzero;fill:rgb(34.901962%,14.509805%,22.352941%);fill-opacity:1;" d="M 14.15625 15.375 C 14.1875 15.386719 14.21875 15.394531 14.25 15.40625 C 14.285156 15.644531 14.285156 15.644531 14.25 15.75 C 14.230469 15.738281 14.207031 15.730469 14.1875 15.71875 C 14.1875 15.6875 14.1875 15.65625 14.1875 15.625 C 14.085938 15.636719 13.980469 15.644531 13.875 15.65625 C 13.875 15.613281 13.875 15.574219 13.875 15.53125 C 13.9375 15.53125 14 15.53125 14.0625 15.53125 C 14.070312 15.511719 14.082031 15.492188 14.09375 15.46875 C 14.125 15.40625 14.125 15.40625 14.15625 15.375 Z M 14.15625 15.375 "/>
<path style=" stroke:none;fill-rule:nonzero;fill:rgb(35.686275%,17.647059%,25.882354%);fill-opacity:1;" d="M 14.3125 14.59375 C 14.3125 14.65625 14.3125 14.71875 14.3125 14.78125 C 14.269531 14.78125 14.230469 14.78125 14.1875 14.78125 C 14.1875 14.800781 14.1875 14.824219 14.1875 14.84375 C 14.136719 14.84375 14.085938 14.84375 14.03125 14.84375 C 14.050781 14.914062 14.074219 14.988281 14.09375 15.0625 C 14.027344 15.078125 13.972656 15.09375 13.90625 15.09375 C 13.917969 15 13.925781 14.90625 13.9375 14.8125 C 13.96875 14.800781 14 14.792969 14.03125 14.78125 C 14.042969 14.761719 14.050781 14.738281 14.0625 14.71875 C 14.25 14.59375 14.25 14.59375 14.3125 14.59375 Z M 14.3125 14.59375 "/>
<path style=" stroke:none;fill-rule:nonzero;fill:rgb(14.117648%,16.078432%,34.117648%);fill-opacity:1;" d="M 18.34375 15 C 18.363281 15 18.386719 15 18.40625 15 C 18.445312 15.085938 18.445312 15.085938 18.46875 15.1875 C 18.429688 15.261719 18.429688 15.261719 18.375 15.3125 C 18.355469 15.3125 18.332031 15.3125 18.3125 15.3125 C 18.292969 15.414062 18.269531 15.519531 18.25 15.625 C 18.164062 15.453125 18.164062 15.453125 18.15625 15.34375 C 18.203125 15.242188 18.203125 15.242188 18.25 15.15625 C 18.269531 15.15625 18.292969 15.15625 18.3125 15.15625 C 18.324219 15.105469 18.332031 15.054688 18.34375 15 Z M 18.34375 15 "/>
<path style=" stroke:none;fill-rule:nonzero;fill:rgb(31.37255%,18.039216%,33.333334%);fill-opacity:1;" d="M 18.125 14.5625 C 18.234375 14.578125 18.332031 14.589844 18.4375 14.625 C 18.4375 14.65625 18.4375 14.6875 18.4375 14.71875 C 18.46875 14.730469 18.5 14.738281 18.53125 14.75 C 18.5 14.792969 18.46875 14.832031 18.4375 14.875 C 18.34375 14.84375 18.25 14.8125 18.15625 14.78125 C 18.144531 14.710938 18.136719 14.636719 18.125 14.5625 Z M 18.125 14.5625 "/>
<path style=" stroke:none;fill-rule:nonzero;fill:rgb(72.156864%,42.352942%,32.156864%);fill-opacity:1;" d="M 16.84375 15.59375 C 16.863281 15.613281 16.886719 15.636719 16.90625 15.65625 C 16.886719 15.65625 16.863281 15.65625 16.84375 15.65625 C 16.84375 15.699219 16.84375 15.738281 16.84375 15.78125 C 16.824219 15.78125 16.800781 15.78125 16.78125 15.78125 C 16.769531 15.8125 16.761719 15.84375 16.75 15.875 C 16.507812 15.902344 16.296875 15.917969 16.0625 15.84375 C 16.042969 15.824219 16.019531 15.800781 16 15.78125 C 16.0625 15.78125 16.125 15.78125 16.1875 15.78125 C 16.1875 15.800781 16.1875 15.824219 16.1875 15.84375 C 16.332031 15.832031 16.476562 15.824219 16.625 15.8125 C 16.644531 15.761719 16.667969 15.710938 16.6875 15.65625 C 16.769531 15.617188 16.769531 15.617188 16.84375 15.59375 Z M 16.84375 15.59375 "/>
<path style=" stroke:none;fill-rule:nonzero;fill:rgb(99.215686%,98.431373%,80.784315%);fill-opacity:1;" d="M 15.84375 15.03125 C 15.914062 15.03125 15.988281 15.03125 16.0625 15.03125 C 16.0625 15.113281 16.0625 15.195312 16.0625 15.28125 C 16.042969 15.28125 16.019531 15.28125 16 15.28125 C 16 15.300781 16 15.324219 16 15.34375 C 15.949219 15.34375 15.898438 15.34375 15.84375 15.34375 C 15.84375 15.242188 15.84375 15.136719 15.84375 15.03125 Z M 15.84375 15.03125 "/>
<path style=" stroke:none;fill-rule:nonzero;fill:rgb(47.450981%,31.37255%,46.27451%);fill-opacity:1;" d="M 17.625 15.40625 C 17.722656 15.429688 17.8125 15.460938 17.90625 15.5 C 17.90625 15.53125 17.90625 15.5625 17.90625 15.59375 C 17.875 15.59375 17.84375 15.59375 17.8125 15.59375 C 17.824219 15.664062 17.832031 15.738281 17.84375 15.8125 C 17.800781 15.8125 17.761719 15.8125 17.71875 15.8125 C 17.703125 15.761719 17.6875 15.710938 17.671875 15.664062 C 17.664062 15.632812 17.65625 15.605469 17.644531 15.578125 C 17.625 15.5 17.625 15.5 17.625 15.40625 Z M 17.625 15.40625 "/>
<path style=" stroke:none;fill-rule:nonzero;fill:rgb(71.372551%,35.294119%,28.627452%);fill-opacity:1;" d="M 17.15625 15.09375 C 17.199219 15.105469 17.238281 15.113281 17.28125 15.125 C 17.277344 15.15625 17.277344 15.15625 17.273438 15.183594 C 17.269531 15.210938 17.265625 15.234375 17.265625 15.261719 C 17.261719 15.285156 17.257812 15.3125 17.253906 15.339844 C 17.246094 15.40625 17.246094 15.40625 17.28125 15.46875 C 17.265625 15.535156 17.265625 15.535156 17.25 15.59375 C 17.269531 15.605469 17.292969 15.613281 17.3125 15.625 C 17.242188 15.625 17.167969 15.625 17.09375 15.625 C 17.113281 15.449219 17.136719 15.273438 17.15625 15.09375 Z M 17.15625 15.09375 "/>
<path style=" stroke:none;fill-rule:nonzero;fill:rgb(69.01961%,36.862746%,26.666668%);fill-opacity:1;" d="M 15 14.46875 C 15.132812 14.480469 15.269531 14.488281 15.40625 14.5 C 15.40625 14.511719 15.40625 14.519531 15.40625 14.53125 C 15.355469 14.542969 15.304688 14.550781 15.25 14.5625 C 15.25 14.574219 15.25 14.582031 15.25 14.59375 C 15.1875 14.59375 15.125 14.59375 15.0625 14.59375 C 15.0625 14.636719 15.0625 14.675781 15.0625 14.71875 C 15.113281 14.730469 15.164062 14.738281 15.21875 14.75 C 15.21875 14.761719 15.21875 14.769531 15.21875 14.78125 C 15.199219 14.785156 15.175781 14.789062 15.152344 14.792969 C 15.125 14.796875 15.097656 14.800781 15.070312 14.804688 C 15.039062 14.8125 15.011719 14.816406 14.984375 14.820312 C 14.902344 14.84375 14.867188 14.871094 14.8125 14.9375 C 14.824219 14.867188 14.832031 14.792969 14.84375 14.71875 C 14.863281 14.714844 14.882812 14.714844 14.902344 14.710938 C 14.972656 14.691406 14.972656 14.691406 15.007812 14.625 C 15.015625 14.601562 15.023438 14.582031 15.03125 14.5625 C 15.074219 14.5625 15.113281 14.5625 15.15625 14.5625 C 15.15625 14.542969 15.15625 14.519531 15.15625 14.5 C 15.105469 14.5 15.054688 14.5 15 14.5 C 15 14.488281 15 14.480469 15 14.46875 Z M 15 14.46875 "/>
<path style=" stroke:none;fill-rule:nonzero;fill:rgb(88.235295%,66.666669%,32.941177%);fill-opacity:1;" d="M 16.625 15 C 16.679688 15.007812 16.734375 15.019531 16.789062 15.027344 C 16.820312 15.03125 16.851562 15.039062 16.882812 15.042969 C 16.96875 15.0625 16.96875 15.0625 17.0625 15.125 C 17.007812 15.171875 17.007812 15.171875 16.9375 15.21875 C 16.867188 15.210938 16.867188 15.210938 16.8125 15.1875 C 16.800781 15.207031 16.792969 15.230469 16.78125 15.25 C 16.730469 15.238281 16.679688 15.230469 16.625 15.21875 C 16.625 15.148438 16.625 15.074219 16.625 15 Z M 16.625 15 "/>
<path style=" stroke:none;fill-rule:nonzero;fill:rgb(35.686275%,18.039216%,26.666668%);fill-opacity:1;" d="M 13.84375 15.1875 C 13.863281 15.1875 13.886719 15.1875 13.90625 15.1875 C 13.90625 15.28125 13.90625 15.28125 13.828125 15.367188 C 13.800781 15.390625 13.777344 15.414062 13.75 15.4375 C 13.78125 15.480469 13.8125 15.519531 13.84375 15.5625 C 13.832031 15.582031 13.824219 15.605469 13.8125 15.625 C 13.613281 15.429688 13.613281 15.429688 13.5625 15.34375 C 13.570312 15.273438 13.570312 15.273438 13.59375 15.21875 C 13.65625 15.234375 13.65625 15.234375 13.71875 15.25 C 13.6875 15.269531 13.65625 15.292969 13.625 15.3125 C 13.65625 15.3125 13.6875 15.3125 13.71875 15.3125 C 13.738281 15.292969 13.761719 15.269531 13.78125 15.25 C 13.800781 15.230469 13.824219 15.207031 13.84375 15.1875 Z M 13.84375 15.1875 "/>
<path style=" stroke:none;fill-rule:nonzero;fill:rgb(22.352941%,13.725491%,30.19608%);fill-opacity:1;" d="M 18.15625 14.5 C 18.320312 14.511719 18.484375 14.519531 18.65625 14.53125 C 18.65625 14.5625 18.65625 14.59375 18.65625 14.625 C 18.632812 14.632812 18.605469 14.644531 18.582031 14.65625 C 18.503906 14.683594 18.503906 14.683594 18.4375 14.71875 C 18.4375 14.6875 18.4375 14.65625 18.4375 14.625 C 18.34375 14.613281 18.25 14.605469 18.15625 14.59375 C 18.15625 14.5625 18.15625 14.53125 18.15625 14.5 Z M 18.15625 14.5 "/>
<path style=" stroke:none;fill-rule:nonzero;fill:rgb(67.450982%,37.254903%,40.784314%);fill-opacity:1;" d="M 17.53125 15.5625 C 17.519531 15.664062 17.511719 15.769531 17.5 15.875 C 17.367188 15.875 17.230469 15.875 17.09375 15.875 C 17.09375 15.792969 17.09375 15.710938 17.09375 15.625 C 17.105469 15.625 17.113281 15.625 17.125 15.625 C 17.125 15.695312 17.125 15.769531 17.125 15.84375 C 17.207031 15.832031 17.289062 15.824219 17.375 15.8125 C 17.375 15.75 17.375 15.6875 17.375 15.625 C 17.496094 15.5625 17.496094 15.5625 17.53125 15.5625 Z M 17.53125 15.5625 "/>
<path style=" stroke:none;fill-rule:nonzero;fill:rgb(10.980392%,9.411765%,22.745098%);fill-opacity:1;" d="M 13.09375 15.5625 C 13.144531 15.5625 13.195312 15.5625 13.25 15.5625 C 13.1875 15.59375 13.1875 15.59375 13.125 15.625 C 13.125 15.644531 13.125 15.667969 13.125 15.6875 C 13.207031 15.667969 13.289062 15.644531 13.375 15.625 C 13.375 15.65625 13.375 15.6875 13.375 15.71875 C 13.324219 15.730469 13.273438 15.738281 13.21875 15.75 C 13.21875 15.792969 13.21875 15.832031 13.21875 15.875 C 13.167969 15.875 13.117188 15.875 13.0625 15.875 C 13.058594 15.632812 13.058594 15.632812 13.09375 15.5625 Z M 13.09375 15.5625 "/>
<path style=" stroke:none;fill-rule:nonzero;fill:rgb(98.039216%,82.745099%,32.156864%);fill-opacity:1;" d="M 15.90625 14.75 C 15.925781 14.792969 15.949219 14.832031 15.96875 14.875 C 16.0625 14.875 16.15625 14.875 16.25 14.875 C 16.25 14.9375 16.25 15 16.25 15.0625 C 16.230469 15.0625 16.207031 15.0625 16.1875 15.0625 C 16.175781 15.042969 16.167969 15.019531 16.15625 15 C 16.089844 14.984375 16.089844 14.984375 16.015625 14.980469 C 15.988281 14.976562 15.960938 14.976562 15.933594 14.972656 C 15.914062 14.972656 15.894531 14.96875 15.875 14.96875 C 15.886719 14.898438 15.894531 14.824219 15.90625 14.75 Z M 15.90625 14.75 "/>
<path style=" stroke:none;fill-rule:nonzero;fill:rgb(94.117647%,68.627453%,36.862746%);fill-opacity:1;" d="M 15.375 15.21875 C 15.386719 15.21875 15.394531 15.21875 15.40625 15.21875 C 15.40625 15.332031 15.40625 15.445312 15.40625 15.5625 C 15.441406 15.570312 15.476562 15.578125 15.515625 15.585938 C 15.570312 15.605469 15.570312 15.605469 15.625 15.625 C 15.636719 15.65625 15.644531 15.6875 15.65625 15.71875 C 15.613281 15.75 15.574219 15.78125 15.53125 15.8125 C 15.53125 15.769531 15.53125 15.730469 15.53125 15.6875 C 15.453125 15.65625 15.453125 15.65625 15.375 15.625 C 15.375 15.605469 15.375 15.582031 15.375 15.5625 C 15.296875 15.609375 15.296875 15.609375 15.21875 15.65625 C 15.207031 15.625 15.199219 15.59375 15.1875 15.5625 C 15.21875 15.550781 15.21875 15.550781 15.246094 15.539062 C 15.316406 15.503906 15.316406 15.503906 15.339844 15.433594 C 15.34375 15.394531 15.34375 15.394531 15.351562 15.355469 C 15.355469 15.328125 15.359375 15.304688 15.367188 15.277344 C 15.367188 15.257812 15.371094 15.238281 15.375 15.21875 Z M 15.375 15.21875 "/>
<path style=" stroke:none;fill-rule:nonzero;fill:rgb(62.7451%,27.843139%,12.54902%);fill-opacity:1;" d="M 16.6875 15.3125 C 16.828125 15.34375 16.828125 15.34375 16.96875 15.375 C 16.96875 15.394531 16.96875 15.417969 16.96875 15.4375 C 16.925781 15.4375 16.886719 15.4375 16.84375 15.4375 C 16.84375 15.457031 16.84375 15.480469 16.84375 15.5 C 16.886719 15.519531 16.925781 15.542969 16.96875 15.5625 C 16.917969 15.585938 16.917969 15.585938 16.84375 15.59375 C 16.742188 15.53125 16.742188 15.53125 16.65625 15.46875 C 16.667969 15.417969 16.675781 15.367188 16.6875 15.3125 Z M 16.6875 15.3125 "/>
<path style=" stroke:none;fill-rule:nonzero;fill:rgb(14.117648%,8.235294%,16.078432%);fill-opacity:1;" d="M 13.4375 15.53125 C 13.449219 15.53125 13.457031 15.53125 13.46875 15.53125 C 13.46875 15.644531 13.46875 15.757812 13.46875 15.875 C 13.386719 15.875 13.304688 15.875 13.21875 15.875 C 13.21875 15.832031 13.21875 15.792969 13.21875 15.75 C 13.269531 15.738281 13.320312 15.730469 13.375 15.71875 C 13.375 15.699219 13.375 15.675781 13.375 15.65625 C 13.394531 15.65625 13.417969 15.65625 13.4375 15.65625 C 13.4375 15.613281 13.4375 15.574219 13.4375 15.53125 Z M 13.4375 15.53125 "/>
<path style=" stroke:none;fill-rule:nonzero;fill:rgb(9.803922%,1.176471%,2.745098%);fill-opacity:1;" d="M 17.5625 15.28125 C 17.621094 15.382812 17.648438 15.488281 17.675781 15.601562 C 17.683594 15.636719 17.691406 15.667969 17.699219 15.703125 C 17.707031 15.730469 17.710938 15.753906 17.71875 15.78125 C 17.699219 15.78125 17.675781 15.78125 17.65625 15.78125 C 17.636719 15.730469 17.613281 15.679688 17.59375 15.625 C 17.574219 15.707031 17.550781 15.789062 17.53125 15.875 C 17.519531 15.875 17.511719 15.875 17.5 15.875 C 17.503906 15.789062 17.507812 15.699219 17.515625 15.613281 C 17.515625 15.589844 17.515625 15.5625 17.515625 15.539062 C 17.527344 15.351562 17.527344 15.351562 17.5625 15.28125 Z M 17.5625 15.28125 "/>
<path style=" stroke:none;fill-rule:nonzero;fill:rgb(28.627452%,20.784314%,35.294119%);fill-opacity:1;" d="M 17.96875 15.0625 C 17.980469 15.0625 17.988281 15.0625 18 15.0625 C 18.003906 15.085938 18.007812 15.109375 18.015625 15.132812 C 18.03125 15.222656 18.03125 15.222656 18.0625 15.3125 C 18.019531 15.324219 17.980469 15.332031 17.9375 15.34375 C 17.9375 15.394531 17.9375 15.445312 17.9375 15.5 C 17.894531 15.425781 17.871094 15.390625 17.886719 15.304688 C 17.894531 15.285156 17.898438 15.269531 17.90625 15.25 C 17.875 15.25 17.84375 15.25 17.8125 15.25 C 17.800781 15.292969 17.792969 15.332031 17.78125 15.375 C 17.761719 15.332031 17.738281 15.292969 17.71875 15.25 C 17.792969 15.210938 17.859375 15.183594 17.9375 15.15625 C 17.949219 15.125 17.957031 15.09375 17.96875 15.0625 Z M 17.96875 15.0625 "/>
<path style=" stroke:none;fill-rule:nonzero;fill:rgb(15.686275%,10.588235%,26.274511%);fill-opacity:1;" d="M 18.34375 14.5 C 18.46875 14.5 18.589844 14.5 18.71875 14.5 C 18.71875 14.570312 18.71875 14.644531 18.71875 14.71875 C 18.6875 14.730469 18.65625 14.738281 18.625 14.75 C 18.625 14.769531 18.625 14.792969 18.625 14.8125 C 18.605469 14.8125 18.582031 14.8125 18.5625 14.8125 C 18.511719 14.734375 18.511719 14.734375 18.46875 14.65625 C 18.53125 14.644531 18.59375 14.636719 18.65625 14.625 C 18.65625 14.59375 18.65625 14.5625 18.65625 14.53125 C 18.554688 14.53125 18.449219 14.53125 18.34375 14.53125 C 18.34375 14.519531 18.34375 14.511719 18.34375 14.5 Z M 18.34375 14.5 "/>
<path style=" stroke:none;fill-rule:nonzero;fill:rgb(89.803922%,69.411767%,41.960785%);fill-opacity:1;" d="M 17 15.125 C 17.019531 15.125 17.042969 15.125 17.0625 15.125 C 17.0625 15.195312 17.0625 15.269531 17.0625 15.34375 C 17.050781 15.324219 17.042969 15.300781 17.03125 15.28125 C 16.832031 15.296875 16.832031 15.296875 16.625 15.3125 C 16.636719 15.269531 16.644531 15.230469 16.65625 15.1875 C 16.671875 15.195312 16.691406 15.199219 16.707031 15.207031 C 16.808594 15.222656 16.875 15.195312 16.96875 15.15625 C 16.980469 15.144531 16.988281 15.136719 17 15.125 Z M 17 15.125 "/>
<path style=" stroke:none;fill-rule:nonzero;fill:rgb(63.921571%,25.882354%,19.215687%);fill-opacity:1;" d="M 16.65625 14.53125 C 16.675781 14.53125 16.699219 14.53125 16.71875 14.53125 C 16.730469 14.550781 16.738281 14.574219 16.75 14.59375 C 16.792969 14.582031 16.832031 14.574219 16.875 14.5625 C 16.875 14.625 16.875 14.6875 16.875 14.75 C 16.90625 14.75 16.9375 14.75 16.96875 14.75 C 16.957031 14.769531 16.949219 14.792969 16.9375 14.8125 C 16.90625 14.8125 16.875 14.8125 16.84375 14.8125 C 16.832031 14.78125 16.824219 14.75 16.8125 14.71875 C 16.75 14.71875 16.6875 14.71875 16.625 14.71875 C 16.625 14.667969 16.625 14.613281 16.625 14.5625 C 16.636719 14.550781 16.644531 14.542969 16.65625 14.53125 Z M 16.65625 14.53125 "/>
<path style=" stroke:none;fill-rule:nonzero;fill:rgb(19.215687%,11.372549%,20.392157%);fill-opacity:1;" d="M 13.375 15.375 C 13.378906 15.394531 13.382812 15.414062 13.386719 15.4375 C 13.394531 15.457031 13.398438 15.476562 13.40625 15.5 C 13.425781 15.511719 13.449219 15.519531 13.46875 15.53125 C 13.457031 15.574219 13.449219 15.613281 13.4375 15.65625 C 13.335938 15.667969 13.230469 15.675781 13.125 15.6875 C 13.125 15.667969 13.125 15.644531 13.125 15.625 C 13.160156 15.605469 13.195312 15.589844 13.234375 15.570312 C 13.324219 15.519531 13.324219 15.519531 13.375 15.429688 C 13.375 15.410156 13.375 15.394531 13.375 15.375 Z M 13.375 15.375 "/>
<path style=" stroke:none;fill-rule:nonzero;fill:rgb(10.588235%,2.745098%,0%);fill-opacity:1;" d="M 15.34375 15 C 15.355469 15 15.363281 15 15.375 15 C 15.378906 15.0625 15.378906 15.128906 15.382812 15.195312 C 15.382812 15.230469 15.382812 15.265625 15.382812 15.300781 C 15.375 15.417969 15.355469 15.472656 15.28125 15.5625 C 15.222656 15.585938 15.222656 15.585938 15.15625 15.59375 C 15.136719 15.59375 15.117188 15.597656 15.09375 15.597656 C 15.03125 15.59375 15.03125 15.59375 14.90625 15.53125 C 15.019531 15.53125 15.132812 15.53125 15.25 15.53125 C 15.261719 15.480469 15.269531 15.429688 15.28125 15.375 C 15.292969 15.363281 15.300781 15.355469 15.3125 15.34375 C 15.320312 15.285156 15.324219 15.226562 15.328125 15.171875 C 15.332031 15.136719 15.335938 15.105469 15.339844 15.074219 C 15.339844 15.050781 15.34375 15.023438 15.34375 15 Z M 15.34375 15 "/>
<path style=" stroke:none;fill-rule:nonzero;fill:rgb(68.627453%,30.980393%,28.627452%);fill-opacity:1;" d="M 17.28125 15.15625 C 17.3125 15.175781 17.34375 15.199219 17.375 15.21875 C 17.375 15.25 17.375 15.28125 17.375 15.3125 C 17.34375 15.3125 17.3125 15.3125 17.28125 15.3125 C 17.335938 15.429688 17.335938 15.429688 17.445312 15.492188 C 17.460938 15.496094 17.480469 15.496094 17.5 15.5 C 17.5 15.519531 17.5 15.542969 17.5 15.5625 C 17.476562 15.5625 17.453125 15.5625 17.429688 15.5625 C 17.339844 15.558594 17.339844 15.558594 17.25 15.59375 C 17.25 15.570312 17.25 15.542969 17.25 15.519531 C 17.253906 15.4375 17.253906 15.4375 17.21875 15.375 C 17.238281 15.300781 17.257812 15.230469 17.28125 15.15625 Z M 17.28125 15.15625 "/>
<path style=" stroke:none;fill-rule:nonzero;fill:rgb(98.823529%,81.176472%,29.803923%);fill-opacity:1;" d="M 15.59375 14.9375 C 15.636719 14.9375 15.675781 14.9375 15.71875 14.9375 C 15.71875 14.957031 15.71875 14.980469 15.71875 15 C 15.675781 15.011719 15.636719 15.019531 15.59375 15.03125 C 15.597656 15.078125 15.601562 15.121094 15.609375 15.164062 C 15.609375 15.191406 15.613281 15.214844 15.613281 15.242188 C 15.625 15.316406 15.625 15.316406 15.65625 15.40625 C 15.675781 15.40625 15.699219 15.40625 15.71875 15.40625 C 15.707031 15.4375 15.699219 15.46875 15.6875 15.5 C 15.535156 15.355469 15.535156 15.355469 15.519531 15.230469 C 15.519531 15.152344 15.523438 15.078125 15.53125 15 C 15.550781 15 15.574219 15 15.59375 15 C 15.59375 14.980469 15.59375 14.957031 15.59375 14.9375 Z M 15.59375 14.9375 "/>
<path style=" stroke:none;fill-rule:nonzero;fill:rgb(79.215688%,37.254903%,21.568628%);fill-opacity:1;" d="M 15.21875 14.53125 C 15.269531 14.53125 15.320312 14.53125 15.375 14.53125 C 15.363281 14.5625 15.355469 14.59375 15.34375 14.625 C 15.324219 14.625 15.300781 14.625 15.28125 14.625 C 15.261719 14.667969 15.238281 14.707031 15.21875 14.75 C 15.167969 14.738281 15.117188 14.730469 15.0625 14.71875 C 15.0625 14.675781 15.0625 14.636719 15.0625 14.59375 C 15.113281 14.582031 15.164062 14.574219 15.21875 14.5625 C 15.21875 14.550781 15.21875 14.542969 15.21875 14.53125 Z M 15.21875 14.53125 "/>
<path style=" stroke:none;fill-rule:nonzero;fill:rgb(24.313726%,13.333334%,22.745098%);fill-opacity:1;" d="M 13.53125 14.96875 C 13.550781 14.980469 13.574219 14.988281 13.59375 15 C 13.582031 15.078125 13.582031 15.078125 13.5625 15.15625 C 13.53125 15.171875 13.53125 15.171875 13.5 15.1875 C 13.480469 15.28125 13.480469 15.28125 13.46875 15.375 C 13.449219 15.332031 13.425781 15.292969 13.40625 15.25 C 13.375 15.25 13.34375 15.25 13.3125 15.25 C 13.332031 15.199219 13.355469 15.148438 13.375 15.09375 C 13.386719 15.113281 13.394531 15.136719 13.40625 15.15625 C 13.425781 15.15625 13.449219 15.15625 13.46875 15.15625 C 13.488281 15.09375 13.511719 15.03125 13.53125 14.96875 Z M 13.53125 14.96875 "/>
<path style=" stroke:none;fill-rule:nonzero;fill:rgb(83.137256%,43.529412%,21.176471%);fill-opacity:1;" d="M 15.84375 14.5 C 15.988281 14.5 16.132812 14.5 16.28125 14.5 C 16.28125 14.542969 16.28125 14.582031 16.28125 14.625 C 16.136719 14.605469 15.988281 14.582031 15.84375 14.5625 C 15.84375 14.542969 15.84375 14.519531 15.84375 14.5 Z M 15.84375 14.5 "/>
<path style=" stroke:none;fill-rule:nonzero;fill:rgb(98.039216%,97.647059%,65.490198%);fill-opacity:1;" d="M 16.0625 15.03125 C 16.109375 15.070312 16.109375 15.070312 16.15625 15.125 C 16.164062 15.210938 16.164062 15.210938 16.15625 15.28125 C 16.136719 15.28125 16.113281 15.28125 16.09375 15.28125 C 16.09375 15.3125 16.09375 15.34375 16.09375 15.375 C 16.023438 15.375 15.949219 15.375 15.875 15.375 C 15.863281 15.417969 15.855469 15.457031 15.84375 15.5 C 15.84375 15.449219 15.84375 15.398438 15.84375 15.34375 C 15.894531 15.34375 15.945312 15.34375 16 15.34375 C 16 15.324219 16 15.300781 16 15.28125 C 16.019531 15.28125 16.042969 15.28125 16.0625 15.28125 C 16.0625 15.199219 16.0625 15.117188 16.0625 15.03125 Z M 16.0625 15.03125 "/>
<path style=" stroke:none;fill-rule:nonzero;fill:rgb(85.490197%,48.235294%,24.313726%);fill-opacity:1;" d="M 16.65625 14.78125 C 16.667969 14.796875 16.683594 14.8125 16.695312 14.828125 C 16.753906 14.878906 16.796875 14.894531 16.875 14.90625 C 16.863281 14.949219 16.855469 14.988281 16.84375 15.03125 C 16.800781 15.042969 16.761719 15.050781 16.71875 15.0625 C 16.71875 15.042969 16.71875 15.019531 16.71875 15 C 16.6875 15 16.65625 15 16.625 15 C 16.636719 14.929688 16.644531 14.855469 16.65625 14.78125 Z M 16.65625 14.78125 "/>
<path style=" stroke:none;fill-rule:nonzero;fill:rgb(47.058824%,21.568628%,28.235295%);fill-opacity:1;" d="M 14.25 14.75 C 14.269531 14.761719 14.292969 14.769531 14.3125 14.78125 C 14.3125 14.882812 14.3125 14.988281 14.3125 15.09375 C 14.28125 15.0625 14.25 15.03125 14.21875 15 C 14.21875 14.96875 14.21875 14.9375 14.21875 14.90625 C 14.175781 14.894531 14.136719 14.886719 14.09375 14.875 C 14.125 14.863281 14.15625 14.855469 14.1875 14.84375 C 14.1875 14.824219 14.1875 14.800781 14.1875 14.78125 C 14.207031 14.769531 14.230469 14.761719 14.25 14.75 Z M 14.25 14.75 "/>
<path style=" stroke:none;fill-rule:nonzero;fill:rgb(9.803922%,1.176471%,0%);fill-opacity:1;" d="M 15.8125 14.5 C 15.824219 14.5 15.832031 14.5 15.84375 14.5 C 15.84375 14.613281 15.84375 14.726562 15.84375 14.84375 C 15.8125 14.855469 15.78125 14.863281 15.75 14.875 C 15.6875 14.773438 15.625 14.667969 15.5625 14.5625 C 15.675781 14.617188 15.730469 14.660156 15.8125 14.75 C 15.804688 14.695312 15.804688 14.695312 15.796875 14.640625 C 15.789062 14.605469 15.785156 14.570312 15.78125 14.53125 C 15.792969 14.519531 15.800781 14.511719 15.8125 14.5 Z M 15.8125 14.5 "/>
<path style=" stroke:none;fill-rule:nonzero;fill:rgb(9.411765%,0.784314%,0.392157%);fill-opacity:1;" d="M 16.96875 15.6875 C 16.980469 15.707031 16.988281 15.730469 17 15.75 C 16.921875 15.832031 16.855469 15.898438 16.75 15.9375 C 16.699219 15.9375 16.644531 15.9375 16.59375 15.9375 C 16.582031 15.949219 16.574219 15.957031 16.5625 15.96875 C 16.488281 15.960938 16.417969 15.949219 16.34375 15.9375 C 16.34375 15.925781 16.34375 15.917969 16.34375 15.90625 C 16.378906 15.898438 16.414062 15.894531 16.449219 15.886719 C 16.496094 15.878906 16.542969 15.871094 16.585938 15.859375 C 16.609375 15.855469 16.632812 15.851562 16.65625 15.847656 C 16.753906 15.832031 16.84375 15.8125 16.9375 15.78125 C 16.949219 15.75 16.957031 15.71875 16.96875 15.6875 Z M 16.96875 15.6875 "/>
<path style=" stroke:none;fill-rule:nonzero;fill:rgb(96.862745%,80.000001%,40.392157%);fill-opacity:1;" d="M 15.875 15.5 C 15.90625 15.515625 15.90625 15.515625 15.9375 15.53125 C 15.992188 15.539062 16.042969 15.542969 16.097656 15.546875 C 16.125 15.550781 16.15625 15.554688 16.183594 15.558594 C 16.207031 15.558594 16.226562 15.5625 16.25 15.5625 C 16.179688 15.597656 16.113281 15.628906 16.039062 15.65625 C 15.964844 15.679688 15.964844 15.679688 15.9375 15.75 C 15.882812 15.652344 15.875 15.617188 15.875 15.5 Z M 15.875 15.5 "/>
<path style=" stroke:none;fill-rule:nonzero;fill:rgb(61.56863%,27.843139%,25.490198%);fill-opacity:1;" d="M 17.1875 14.84375 C 17.246094 14.863281 17.246094 14.863281 17.3125 14.90625 C 17.339844 14.980469 17.339844 14.980469 17.351562 15.066406 C 17.355469 15.09375 17.359375 15.125 17.367188 15.152344 C 17.367188 15.175781 17.371094 15.195312 17.375 15.21875 C 17.34375 15.234375 17.34375 15.234375 17.3125 15.25 C 17.300781 15.21875 17.292969 15.1875 17.28125 15.15625 C 17.21875 15.105469 17.21875 15.105469 17.15625 15.0625 C 17.167969 14.992188 17.175781 14.917969 17.1875 14.84375 Z M 17.1875 14.84375 "/>
<path style=" stroke:none;fill-rule:nonzero;fill:rgb(17.647059%,18.039216%,39.215687%);fill-opacity:1;" d="M 18.09375 15.3125 C 18.125 15.324219 18.15625 15.332031 18.1875 15.34375 C 18.199219 15.4375 18.207031 15.53125 18.21875 15.625 C 18.1875 15.640625 18.1875 15.640625 18.15625 15.65625 C 18.15625 15.636719 18.15625 15.613281 18.15625 15.59375 C 18.136719 15.59375 18.113281 15.59375 18.09375 15.59375 C 18.058594 15.382812 18.058594 15.382812 18.09375 15.3125 Z M 18.09375 15.3125 "/>
<path style=" stroke:none;fill-rule:nonzero;fill:rgb(14.117648%,9.803922%,22.352941%);fill-opacity:1;" d="M 13.1875 14.8125 C 13.207031 14.8125 13.230469 14.8125 13.25 14.8125 C 13.25 14.84375 13.25 14.875 13.25 14.90625 C 13.269531 14.90625 13.292969 14.90625 13.3125 14.90625 C 13.3125 14.957031 13.3125 15.007812 13.3125 15.0625 C 13.242188 15.050781 13.167969 15.042969 13.09375 15.03125 C 13.09375 15 13.09375 14.96875 13.09375 14.9375 C 13.113281 14.949219 13.136719 14.957031 13.15625 14.96875 C 13.167969 14.917969 13.175781 14.867188 13.1875 14.8125 Z M 13.1875 14.8125 "/>
<path style=" stroke:none;fill-rule:nonzero;fill:rgb(33.333334%,22.352941%,39.607844%);fill-opacity:1;" d="M 17.8125 15.25 C 17.84375 15.25 17.875 15.25 17.90625 15.25 C 17.90625 15.332031 17.90625 15.414062 17.90625 15.5 C 17.855469 15.488281 17.804688 15.480469 17.75 15.46875 C 17.738281 15.40625 17.730469 15.34375 17.71875 15.28125 C 17.738281 15.300781 17.761719 15.324219 17.78125 15.34375 C 17.792969 15.3125 17.800781 15.28125 17.8125 15.25 Z M 17.8125 15.25 "/>
<path style=" stroke:none;fill-rule:nonzero;fill:rgb(99.215686%,99.607843%,95.294118%);fill-opacity:1;" d="M 15.84375 15.0625 C 15.894531 15.0625 15.945312 15.0625 16 15.0625 C 15.988281 15.132812 15.980469 15.207031 15.96875 15.28125 C 15.925781 15.28125 15.886719 15.28125 15.84375 15.28125 C 15.84375 15.210938 15.84375 15.136719 15.84375 15.0625 Z M 15.84375 15.0625 "/>
<path style=" stroke:none;fill-rule:nonzero;fill:rgb(83.529413%,49.019608%,27.058825%);fill-opacity:1;" d="M 16.65625 15.5 C 16.71875 15.519531 16.78125 15.542969 16.84375 15.5625 C 16.84375 15.582031 16.84375 15.605469 16.84375 15.625 C 16.792969 15.636719 16.742188 15.644531 16.6875 15.65625 C 16.675781 15.707031 16.667969 15.757812 16.65625 15.8125 C 16.625 15.8125 16.59375 15.8125 16.5625 15.8125 C 16.5625 15.792969 16.5625 15.769531 16.5625 15.75 C 16.59375 15.75 16.625 15.75 16.65625 15.75 C 16.65625 15.730469 16.65625 15.707031 16.65625 15.6875 C 16.636719 15.675781 16.613281 15.667969 16.59375 15.65625 C 16.613281 15.636719 16.636719 15.613281 16.65625 15.59375 C 16.65625 15.5625 16.65625 15.53125 16.65625 15.5 Z M 16.65625 15.5 "/>
<path style=" stroke:none;fill-rule:nonzero;fill:rgb(94.509804%,86.274511%,51.764709%);fill-opacity:1;" d="M 16.25 15.0625 C 16.261719 15.0625 16.269531 15.0625 16.28125 15.0625 C 16.292969 15.226562 16.300781 15.390625 16.3125 15.5625 C 16.28125 15.550781 16.25 15.542969 16.21875 15.53125 C 16.148438 15.367188 16.148438 15.367188 16.1875 15.25 C 16.207031 15.25 16.230469 15.25 16.25 15.25 C 16.25 15.1875 16.25 15.125 16.25 15.0625 Z M 16.25 15.0625 "/>
<path style=" stroke:none;fill-rule:nonzero;fill:rgb(54.509807%,20.784314%,18.431373%);fill-opacity:1;" d="M 14.5 15.28125 C 14.542969 15.28125 14.582031 15.28125 14.625 15.28125 C 14.621094 15.296875 14.613281 15.316406 14.609375 15.332031 C 14.589844 15.425781 14.605469 15.5 14.625 15.59375 C 14.59375 15.609375 14.59375 15.609375 14.5625 15.625 C 14.550781 15.5625 14.542969 15.5 14.53125 15.4375 C 14.511719 15.4375 14.488281 15.4375 14.46875 15.4375 C 14.480469 15.386719 14.488281 15.335938 14.5 15.28125 Z M 14.5 15.28125 "/>
<path style=" stroke:none;fill-rule:nonzero;fill:rgb(86.274511%,63.137257%,38.82353%);fill-opacity:1;" d="M 16.65625 15.28125 C 16.78125 15.28125 16.902344 15.28125 17.03125 15.28125 C 17.042969 15.34375 17.050781 15.40625 17.0625 15.46875 C 17.050781 15.4375 17.042969 15.40625 17.03125 15.375 C 16.988281 15.375 16.988281 15.375 16.945312 15.378906 C 16.84375 15.375 16.78125 15.355469 16.6875 15.3125 C 16.675781 15.332031 16.667969 15.355469 16.65625 15.375 C 16.65625 15.34375 16.65625 15.3125 16.65625 15.28125 Z M 16.65625 15.28125 "/>
<path style=" stroke:none;fill-rule:nonzero;fill:rgb(78.431374%,46.666667%,34.117648%);fill-opacity:1;" d="M 17.15625 15.09375 C 17.21875 15.109375 17.21875 15.109375 17.28125 15.125 C 17.28125 15.175781 17.28125 15.226562 17.28125 15.28125 C 17.25 15.292969 17.21875 15.300781 17.1875 15.3125 C 17.1875 15.355469 17.1875 15.394531 17.1875 15.4375 C 17.167969 15.4375 17.144531 15.4375 17.125 15.4375 C 17.136719 15.324219 17.144531 15.210938 17.15625 15.09375 Z M 17.15625 15.09375 "/>
<path style=" stroke:none;fill-rule:nonzero;fill:rgb(25.098041%,16.470589%,27.450982%);fill-opacity:1;" d="M 18.125 14.625 C 18.144531 14.636719 18.167969 14.644531 18.1875 14.65625 C 18.179688 14.796875 18.167969 14.859375 18.078125 14.96875 C 18.050781 14.988281 18.027344 15.007812 18 15.03125 C 18.015625 14.96875 18.03125 14.90625 18.046875 14.84375 C 18.054688 14.8125 18.0625 14.777344 18.070312 14.742188 C 18.09375 14.65625 18.09375 14.65625 18.125 14.625 Z M 18.125 14.625 "/>
<path style=" stroke:none;fill-rule:nonzero;fill:rgb(44.313726%,19.215687%,23.921569%);fill-opacity:1;" d="M 17.28125 14.53125 C 17.351562 14.542969 17.425781 14.550781 17.5 14.5625 C 17.429688 14.640625 17.429688 14.640625 17.34375 14.71875 C 17.3125 14.71875 17.28125 14.71875 17.25 14.71875 C 17.261719 14.65625 17.269531 14.59375 17.28125 14.53125 Z M 17.5 14.53125 C 17.625 14.5625 17.625 14.5625 17.625 14.5625 Z M 17.5 14.53125 "/>
<path style=" stroke:none;fill-rule:nonzero;fill:rgb(49.411765%,21.960784%,21.176471%);fill-opacity:1;" d="M 14.625 15.625 C 14.757812 15.640625 14.816406 15.71875 14.90625 15.8125 C 14.9375 15.824219 14.96875 15.832031 15 15.84375 C 14.988281 15.863281 14.980469 15.886719 14.96875 15.90625 C 14.875 15.890625 14.875 15.890625 14.78125 15.875 C 14.78125 15.84375 14.78125 15.8125 14.78125 15.78125 C 14.730469 15.769531 14.679688 15.761719 14.625 15.75 C 14.625 15.707031 14.625 15.667969 14.625 15.625 Z M 14.625 15.625 "/>
<path style=" stroke:none;fill-rule:nonzero;fill:rgb(86.274511%,55.29412%,31.37255%);fill-opacity:1;" d="M 16.625 15.3125 C 16.632812 15.332031 16.644531 15.351562 16.652344 15.367188 C 16.6875 15.445312 16.6875 15.445312 16.75 15.53125 C 16.71875 15.542969 16.6875 15.550781 16.65625 15.5625 C 16.65625 15.59375 16.65625 15.625 16.65625 15.65625 C 16.613281 15.65625 16.574219 15.65625 16.53125 15.65625 C 16.519531 15.625 16.511719 15.59375 16.5 15.5625 C 16.519531 15.550781 16.542969 15.542969 16.5625 15.53125 C 16.585938 15.457031 16.605469 15.386719 16.625 15.3125 Z M 16.625 15.3125 "/>
<path style=" stroke:none;fill-rule:nonzero;fill:rgb(59.607846%,26.274511%,27.450982%);fill-opacity:1;" d="M 17.375 15.21875 C 17.386719 15.261719 17.394531 15.300781 17.40625 15.34375 C 17.425781 15.34375 17.449219 15.34375 17.46875 15.34375 C 17.480469 15.394531 17.488281 15.445312 17.5 15.5 C 17.425781 15.492188 17.425781 15.492188 17.34375 15.46875 C 17.304688 15.390625 17.304688 15.390625 17.28125 15.3125 C 17.3125 15.3125 17.34375 15.3125 17.375 15.3125 C 17.375 15.28125 17.375 15.25 17.375 15.21875 Z M 17.375 15.21875 "/>
<path style=" stroke:none;fill-rule:nonzero;fill:rgb(88.235295%,59.215689%,31.37255%);fill-opacity:1;" d="M 16.0625 14.59375 C 16.132812 14.605469 16.207031 14.613281 16.28125 14.625 C 16.28125 14.769531 16.28125 14.914062 16.28125 15.0625 C 16.269531 15.0625 16.261719 15.0625 16.25 15.0625 C 16.238281 14.9375 16.230469 14.816406 16.21875 14.6875 C 16.1875 14.6875 16.15625 14.6875 16.125 14.6875 C 16.125 14.667969 16.125 14.644531 16.125 14.625 C 16.105469 14.613281 16.082031 14.605469 16.0625 14.59375 Z M 16.0625 14.59375 "/>
<path style=" stroke:none;fill-rule:nonzero;fill:rgb(42.352942%,20.784314%,21.960784%);fill-opacity:1;" d="M 14.9375 14.46875 C 14.949219 14.488281 14.957031 14.511719 14.96875 14.53125 C 14.925781 14.53125 14.886719 14.53125 14.84375 14.53125 C 14.84375 14.550781 14.84375 14.574219 14.84375 14.59375 C 14.820312 14.597656 14.792969 14.601562 14.765625 14.605469 C 14.726562 14.613281 14.726562 14.613281 14.6875 14.625 C 14.675781 14.644531 14.667969 14.667969 14.65625 14.6875 C 14.613281 14.675781 14.574219 14.667969 14.53125 14.65625 C 14.660156 14.535156 14.765625 14.503906 14.9375 14.46875 Z M 14.9375 14.46875 "/>
<path style=" stroke:none;fill-rule:nonzero;fill:rgb(28.235295%,25.098041%,41.568628%);fill-opacity:1;" d="M 18.0625 15.65625 C 18.183594 15.710938 18.183594 15.710938 18.21875 15.78125 C 18.207031 15.8125 18.199219 15.84375 18.1875 15.875 C 18.09375 15.875 18 15.875 17.90625 15.875 C 17.949219 15.855469 17.988281 15.832031 18.03125 15.8125 C 18.03125 15.792969 18.03125 15.769531 18.03125 15.75 C 18.042969 15.71875 18.050781 15.6875 18.0625 15.65625 Z M 18.0625 15.65625 "/>
<path style=" stroke:none;fill-rule:nonzero;fill:rgb(76.078433%,42.352942%,25.098041%);fill-opacity:1;" d="M 16.84375 15.59375 C 16.863281 15.613281 16.886719 15.636719 16.90625 15.65625 C 16.886719 15.65625 16.863281 15.65625 16.84375 15.65625 C 16.84375 15.699219 16.84375 15.738281 16.84375 15.78125 C 16.78125 15.792969 16.71875 15.800781 16.65625 15.8125 C 16.664062 15.738281 16.664062 15.738281 16.6875 15.65625 C 16.765625 15.617188 16.765625 15.617188 16.84375 15.59375 Z M 16.84375 15.59375 "/>
<path style=" stroke:none;fill-rule:nonzero;fill:rgb(94.117647%,67.058825%,34.117648%);fill-opacity:1;" d="M 16.3125 15.53125 C 16.34375 15.550781 16.375 15.574219 16.40625 15.59375 C 16.261719 15.660156 16.261719 15.660156 16.15625 15.625 C 16.144531 15.65625 16.136719 15.6875 16.125 15.71875 C 16.046875 15.757812 16.046875 15.757812 15.96875 15.78125 C 15.96875 15.75 15.96875 15.71875 15.96875 15.6875 C 16.074219 15.609375 16.183594 15.5625 16.3125 15.53125 Z M 16.3125 15.53125 "/>
<path style=" stroke:none;fill-rule:nonzero;fill:rgb(96.470588%,58.039218%,24.705882%);fill-opacity:1;" d="M 15.3125 15.5625 C 15.332031 15.5625 15.355469 15.5625 15.375 15.5625 C 15.375 15.582031 15.375 15.605469 15.375 15.625 C 15.46875 15.640625 15.46875 15.640625 15.5625 15.65625 C 15.5625 15.6875 15.5625 15.71875 15.5625 15.75 C 15.511719 15.761719 15.460938 15.769531 15.40625 15.78125 C 15.40625 15.761719 15.40625 15.738281 15.40625 15.71875 C 15.363281 15.699219 15.324219 15.675781 15.28125 15.65625 C 15.292969 15.625 15.300781 15.59375 15.3125 15.5625 Z M 15.3125 15.5625 "/>
<path style=" stroke:none;fill-rule:nonzero;fill:rgb(41.960785%,22.352941%,34.117648%);fill-opacity:1;" d="M 14.125 15.15625 C 14.125 15.167969 14.125 15.175781 14.125 15.1875 C 14.023438 15.199219 13.917969 15.207031 13.8125 15.21875 C 13.800781 15.175781 13.792969 15.136719 13.78125 15.09375 C 13.929688 15.054688 14 15.0625 14.125 15.15625 Z M 14.125 15.15625 "/>
<path style=" stroke:none;fill-rule:nonzero;fill:rgb(20%,17.647059%,38.039216%);fill-opacity:1;" d="M 18.28125 14.9375 C 18.300781 14.949219 18.324219 14.957031 18.34375 14.96875 C 18.355469 15 18.363281 15.03125 18.375 15.0625 C 18.355469 15.0625 18.332031 15.0625 18.3125 15.0625 C 18.3125 15.09375 18.3125 15.125 18.3125 15.15625 C 18.28125 15.171875 18.28125 15.171875 18.25 15.1875 C 18.214844 15.25 18.214844 15.25 18.1875 15.3125 C 18.15625 15.230469 18.148438 15.179688 18.183594 15.097656 C 18.214844 15.042969 18.246094 14.988281 18.28125 14.9375 Z M 18.28125 14.9375 "/>
<path style=" stroke:none;fill-rule:nonzero;fill:rgb(34.901962%,20.392157%,30.19608%);fill-opacity:1;" d="M 17.8125 14.78125 C 17.882812 14.890625 17.890625 14.96875 17.90625 15.09375 C 17.855469 15.09375 17.804688 15.09375 17.75 15.09375 C 17.769531 14.992188 17.792969 14.886719 17.8125 14.78125 Z M 17.8125 14.78125 "/>
<path style=" stroke:none;fill-rule:nonzero;fill:rgb(71.372551%,34.117648%,21.960784%);fill-opacity:1;" d="M 16.84375 14.71875 C 16.855469 14.738281 16.863281 14.761719 16.875 14.78125 C 16.925781 14.804688 16.976562 14.824219 17.03125 14.84375 C 17.03125 14.863281 17.03125 14.886719 17.03125 14.90625 C 16.957031 14.886719 16.886719 14.867188 16.8125 14.84375 C 16.800781 14.824219 16.792969 14.800781 16.78125 14.78125 C 16.71875 14.761719 16.71875 14.761719 16.65625 14.75 C 16.644531 14.78125 16.636719 14.8125 16.625 14.84375 C 16.625 14.800781 16.625 14.761719 16.625 14.71875 C 16.71875 14.691406 16.746094 14.6875 16.84375 14.71875 Z M 16.84375 14.71875 "/>
<path style=" stroke:none;fill-rule:nonzero;fill:rgb(6.27451%,0.392157%,0.392157%);fill-opacity:1;" d="M 15.65625 15.6875 C 15.691406 15.789062 15.679688 15.835938 15.65625 15.9375 C 15.574219 15.917969 15.492188 15.894531 15.40625 15.875 C 15.4375 15.855469 15.46875 15.832031 15.5 15.8125 C 15.550781 15.769531 15.605469 15.730469 15.65625 15.6875 Z M 15.65625 15.6875 "/>
<path style=" stroke:none;fill-rule:nonzero;fill:rgb(55.29412%,21.568628%,18.039216%);fill-opacity:1;" d="M 14.6875 14.84375 C 14.699219 14.863281 14.707031 14.886719 14.71875 14.90625 C 14.707031 14.9375 14.699219 14.96875 14.6875 15 C 14.71875 15 14.75 15 14.78125 15 C 14.78125 15.042969 14.78125 15.082031 14.78125 15.125 C 14.71875 15.125 14.65625 15.125 14.59375 15.125 C 14.609375 15.019531 14.636719 14.9375 14.6875 14.84375 Z M 14.6875 14.84375 "/>
<path style=" stroke:none;fill-rule:nonzero;fill:rgb(79.215688%,38.82353%,21.568628%);fill-opacity:1;" d="M 15.09375 15.625 C 15.125 15.636719 15.15625 15.644531 15.1875 15.65625 C 15.1875 15.6875 15.1875 15.71875 15.1875 15.75 C 15.238281 15.761719 15.289062 15.769531 15.34375 15.78125 C 15.34375 15.800781 15.34375 15.824219 15.34375 15.84375 C 15.234375 15.828125 15.136719 15.816406 15.03125 15.78125 C 15.050781 15.730469 15.074219 15.679688 15.09375 15.625 Z M 15.09375 15.625 "/>
<path style=" stroke:none;fill-rule:nonzero;fill:rgb(25.882354%,12.941177%,21.960784%);fill-opacity:1;" d="M 13.625 14.84375 C 13.65625 14.84375 13.6875 14.84375 13.71875 14.84375 C 13.765625 14.925781 13.78125 14.964844 13.78125 15.0625 C 13.738281 15.0625 13.699219 15.0625 13.65625 15.0625 C 13.625 14.988281 13.625 14.988281 13.59375 14.90625 C 13.605469 14.886719 13.613281 14.863281 13.625 14.84375 Z M 13.625 14.84375 "/>
<path style=" stroke:none;fill-rule:nonzero;fill:rgb(92.941177%,55.686277%,21.960784%);fill-opacity:1;" d="M 15.46875 14.625 C 15.5 14.644531 15.53125 14.667969 15.5625 14.6875 C 15.511719 14.699219 15.460938 14.707031 15.40625 14.71875 C 15.425781 14.769531 15.449219 14.820312 15.46875 14.875 C 15.40625 14.90625 15.40625 14.90625 15.34375 14.9375 C 15.316406 14.832031 15.308594 14.761719 15.34375 14.65625 C 15.40625 14.671875 15.40625 14.671875 15.46875 14.6875 C 15.46875 14.667969 15.46875 14.644531 15.46875 14.625 Z M 15.46875 14.625 "/>
<path style=" stroke:none;fill-rule:nonzero;fill:rgb(55.686277%,32.156864%,43.137255%);fill-opacity:1;" d="M 17.625 15.40625 C 17.667969 15.417969 17.707031 15.425781 17.75 15.4375 C 17.761719 15.488281 17.769531 15.539062 17.78125 15.59375 C 17.738281 15.605469 17.699219 15.613281 17.65625 15.625 C 17.644531 15.554688 17.636719 15.480469 17.625 15.40625 Z M 17.625 15.40625 "/>
<path style=" stroke:none;fill-rule:nonzero;fill:rgb(13.333334%,21.960784%,48.235294%);fill-opacity:1;" d="M 18.75 15.40625 C 18.761719 15.40625 18.769531 15.40625 18.78125 15.40625 C 18.792969 15.507812 18.800781 15.613281 18.8125 15.71875 C 18.769531 15.699219 18.730469 15.675781 18.6875 15.65625 C 18.714844 15.476562 18.714844 15.476562 18.75 15.40625 Z M 18.75 15.40625 "/>
<path style=" stroke:none;fill-rule:nonzero;fill:rgb(50.196081%,21.568628%,20.784314%);fill-opacity:1;" d="M 16.625 14.5 C 16.769531 14.5 16.914062 14.5 17.0625 14.5 C 17.0625 14.582031 17.0625 14.664062 17.0625 14.75 C 17.050781 14.75 17.042969 14.75 17.03125 14.75 C 17.03125 14.699219 17.03125 14.648438 17.03125 14.59375 C 17.011719 14.59375 16.988281 14.59375 16.96875 14.59375 C 16.96875 14.574219 16.96875 14.550781 16.96875 14.53125 C 16.855469 14.542969 16.742188 14.550781 16.625 14.5625 C 16.625 14.542969 16.625 14.519531 16.625 14.5 Z M 16.625 14.5 "/>
<path style=" stroke:none;fill-rule:nonzero;fill:rgb(0.784314%,1.176471%,8.627451%);fill-opacity:1;" d="M 18.3125 15.3125 C 18.332031 15.3125 18.355469 15.3125 18.375 15.3125 C 18.375 15.40625 18.375 15.5 18.375 15.59375 C 18.332031 15.59375 18.292969 15.59375 18.25 15.59375 C 18.269531 15.5 18.292969 15.40625 18.3125 15.3125 Z M 18.3125 15.3125 "/>
<path style=" stroke:none;fill-rule:nonzero;fill:rgb(14.117648%,8.627451%,15.294118%);fill-opacity:1;" d="M 13.09375 15.25 C 13.105469 15.25 13.113281 15.25 13.125 15.25 C 13.125 15.277344 13.121094 15.308594 13.117188 15.335938 C 13.117188 15.4375 13.117188 15.4375 13.171875 15.496094 C 13.1875 15.507812 13.203125 15.519531 13.21875 15.53125 C 13.199219 15.535156 13.179688 15.539062 13.15625 15.542969 C 13.136719 15.550781 13.117188 15.554688 13.09375 15.5625 C 13.082031 15.582031 13.074219 15.605469 13.0625 15.625 C 13.0625 15.574219 13.0625 15.523438 13.0625 15.472656 C 13.058594 15.445312 13.058594 15.417969 13.058594 15.386719 C 13.0625 15.3125 13.0625 15.3125 13.09375 15.25 Z M 13.09375 15.25 "/>
<path style=" stroke:none;fill-rule:nonzero;fill:rgb(97.647059%,98.039216%,70.588237%);fill-opacity:1;" d="M 15.75 15 C 15.761719 15 15.769531 15 15.78125 15 C 15.78125 15.113281 15.78125 15.226562 15.78125 15.34375 C 15.75 15.332031 15.71875 15.324219 15.6875 15.3125 C 15.683594 15.1875 15.683594 15.105469 15.75 15 Z M 15.75 15 "/>
<path style=" stroke:none;fill-rule:nonzero;fill:rgb(95.294118%,72.156864%,33.333334%);fill-opacity:1;" d="M 15.71875 14.75 C 15.730469 14.800781 15.738281 14.851562 15.75 14.90625 C 15.730469 14.90625 15.707031 14.90625 15.6875 14.90625 C 15.6875 14.875 15.6875 14.84375 15.6875 14.8125 C 15.636719 14.824219 15.585938 14.832031 15.53125 14.84375 C 15.519531 14.8125 15.511719 14.78125 15.5 14.75 C 15.582031 14.707031 15.628906 14.730469 15.71875 14.75 Z M 15.71875 14.75 "/>
<path style=" stroke:none;fill-rule:nonzero;fill:rgb(40.784314%,23.921569%,40.392157%);fill-opacity:1;" d="M 18.3125 14.65625 C 18.359375 14.65625 18.359375 14.65625 18.40625 14.65625 C 18.375 14.671875 18.375 14.671875 18.34375 14.6875 C 18.355469 14.730469 18.363281 14.769531 18.375 14.8125 C 18.324219 14.8125 18.273438 14.8125 18.21875 14.8125 C 18.203125 14.75 18.203125 14.75 18.1875 14.6875 C 18.21875 14.65625 18.21875 14.65625 18.3125 14.65625 Z M 18.3125 14.65625 "/>
<path style=" stroke:none;fill-rule:nonzero;fill:rgb(63.137257%,29.019609%,22.745098%);fill-opacity:1;" d="M 14.96875 14.46875 C 15.0625 14.484375 15.0625 14.484375 15.15625 14.5 C 15.15625 14.519531 15.15625 14.542969 15.15625 14.5625 C 15.117188 14.574219 15.117188 14.574219 15.078125 14.589844 C 14.996094 14.617188 14.996094 14.617188 14.96875 14.6875 C 14.949219 14.6875 14.925781 14.6875 14.90625 14.6875 C 14.933594 14.539062 14.933594 14.539062 14.96875 14.46875 Z M 14.96875 14.46875 "/>
<path style=" stroke:none;fill-rule:nonzero;fill:rgb(74.901962%,45.490196%,30.588236%);fill-opacity:1;" d="M 16.96875 15.375 C 16.988281 15.375 17.011719 15.375 17.03125 15.375 C 17.066406 15.492188 17.066406 15.492188 17.03125 15.5625 C 16.964844 15.546875 16.90625 15.53125 16.84375 15.5 C 16.84375 15.480469 16.84375 15.457031 16.84375 15.4375 C 16.886719 15.4375 16.925781 15.4375 16.96875 15.4375 C 16.96875 15.417969 16.96875 15.394531 16.96875 15.375 Z M 16.96875 15.375 "/>
<path style=" stroke:none;fill-rule:nonzero;fill:rgb(90.196079%,58.431375%,33.725491%);fill-opacity:1;" d="M 16.46875 15.5625 C 16.535156 15.59375 16.535156 15.59375 16.59375 15.625 C 16.59375 15.644531 16.59375 15.667969 16.59375 15.6875 C 16.613281 15.6875 16.636719 15.6875 16.65625 15.6875 C 16.65625 15.707031 16.65625 15.730469 16.65625 15.75 C 16.550781 15.734375 16.496094 15.71875 16.40625 15.65625 C 16.40625 15.636719 16.40625 15.613281 16.40625 15.59375 C 16.425781 15.582031 16.449219 15.574219 16.46875 15.5625 Z M 16.46875 15.5625 "/>
<path style=" stroke:none;fill-rule:nonzero;fill:rgb(99.607843%,78.431374%,35.294119%);fill-opacity:1;" d="M 15.4375 15.46875 C 15.488281 15.480469 15.539062 15.488281 15.59375 15.5 C 15.605469 15.542969 15.613281 15.582031 15.625 15.625 C 15.476562 15.601562 15.476562 15.601562 15.40625 15.53125 C 15.417969 15.511719 15.425781 15.488281 15.4375 15.46875 Z M 15.4375 15.46875 "/>
<path style=" stroke:none;fill-rule:nonzero;fill:rgb(98.823529%,87.843138%,43.137255%);fill-opacity:1;" d="M 16.21875 15.375 C 16.21875 15.425781 16.21875 15.476562 16.21875 15.53125 C 16.238281 15.53125 16.261719 15.53125 16.28125 15.53125 C 16.269531 15.550781 16.261719 15.574219 16.25 15.59375 C 16.199219 15.582031 16.148438 15.574219 16.09375 15.5625 C 16.105469 15.484375 16.105469 15.484375 16.125 15.40625 C 16.1875 15.375 16.1875 15.375 16.21875 15.375 Z M 16.21875 15.375 "/>
<path style=" stroke:none;fill-rule:nonzero;fill:rgb(21.568628%,26.274511%,49.803922%);fill-opacity:1;" d="M 18.46875 15.75 C 18.53125 15.75 18.59375 15.75 18.65625 15.75 C 18.65625 15.792969 18.65625 15.832031 18.65625 15.875 C 18.59375 15.875 18.53125 15.875 18.46875 15.875 C 18.46875 15.832031 18.46875 15.792969 18.46875 15.75 Z M 18.46875 15.75 "/>
<path style=" stroke:none;fill-rule:nonzero;fill:rgb(58.431375%,27.058825%,19.215687%);fill-opacity:1;" d="M 14.71875 15.625 C 14.796875 15.640625 14.796875 15.640625 14.875 15.65625 C 14.875 15.6875 14.875 15.71875 14.875 15.75 C 14.894531 15.75 14.917969 15.75 14.9375 15.75 C 14.949219 15.78125 14.957031 15.8125 14.96875 15.84375 C 14.863281 15.8125 14.820312 15.792969 14.757812 15.699219 C 14.742188 15.675781 14.730469 15.648438 14.71875 15.625 Z M 14.71875 15.625 "/>
<path style=" stroke:none;fill-rule:nonzero;fill:rgb(32.941177%,15.686275%,22.745098%);fill-opacity:1;" d="M 13.75 15.34375 C 13.753906 15.371094 13.753906 15.371094 13.761719 15.398438 C 13.78125 15.476562 13.8125 15.550781 13.84375 15.625 C 13.695312 15.546875 13.695312 15.546875 13.664062 15.460938 C 13.660156 15.445312 13.660156 15.425781 13.65625 15.40625 C 13.6875 15.386719 13.71875 15.363281 13.75 15.34375 Z M 13.75 15.34375 "/>
<path style=" stroke:none;fill-rule:nonzero;fill:rgb(84.705883%,56.078434%,27.843139%);fill-opacity:1;" d="M 16.84375 15.03125 C 16.914062 15.050781 16.988281 15.074219 17.0625 15.09375 C 17.023438 15.136719 16.980469 15.179688 16.9375 15.21875 C 16.917969 15.21875 16.894531 15.21875 16.875 15.21875 C 16.863281 15.15625 16.855469 15.09375 16.84375 15.03125 Z M 16.84375 15.03125 "/>
<path style=" stroke:none;fill-rule:nonzero;fill:rgb(97.647059%,63.529414%,25.098041%);fill-opacity:1;" d="M 15.625 14.71875 C 15.582031 14.730469 15.542969 14.738281 15.5 14.75 C 15.511719 14.78125 15.519531 14.8125 15.53125 14.84375 C 15.519531 14.863281 15.511719 14.886719 15.5 14.90625 C 15.4375 14.875 15.4375 14.875 15.375 14.78125 C 15.433594 14.664062 15.515625 14.683594 15.625 14.71875 Z M 15.625 14.71875 "/>
<path style=" stroke:none;fill-rule:nonzero;fill:rgb(83.137256%,38.431373%,32.549021%);fill-opacity:1;" d="M 17.15625 15.59375 C 17.1875 15.605469 17.21875 15.613281 17.25 15.625 C 17.25 15.675781 17.25 15.726562 17.25 15.78125 C 17.207031 15.769531 17.167969 15.761719 17.125 15.75 C 17.136719 15.699219 17.144531 15.648438 17.15625 15.59375 Z M 17.15625 15.59375 "/>
<path style=" stroke:none;fill-rule:nonzero;fill:rgb(95.686275%,85.09804%,48.627451%);fill-opacity:1;" d="M 15.71875 15.3125 C 15.738281 15.332031 15.761719 15.355469 15.78125 15.375 C 15.75 15.476562 15.71875 15.582031 15.6875 15.6875 C 15.667969 15.6875 15.644531 15.6875 15.625 15.6875 C 15.636719 15.625 15.644531 15.5625 15.65625 15.5 C 15.675781 15.5 15.699219 15.5 15.71875 15.5 C 15.71875 15.4375 15.71875 15.375 15.71875 15.3125 Z M 15.71875 15.3125 "/>
<path style=" stroke:none;fill-rule:nonzero;fill:rgb(62.7451%,25.098041%,17.254902%);fill-opacity:1;" d="M 14.84375 15.40625 C 14.832031 15.425781 14.824219 15.449219 14.8125 15.46875 C 14.769531 15.457031 14.730469 15.449219 14.6875 15.4375 C 14.675781 15.488281 14.667969 15.539062 14.65625 15.59375 C 14.59375 15.476562 14.59375 15.476562 14.59375 15.40625 C 14.695312 15.371094 14.742188 15.382812 14.84375 15.40625 Z M 14.84375 15.40625 "/>
<path style=" stroke:none;fill-rule:nonzero;fill:rgb(93.725491%,63.529414%,25.882354%);fill-opacity:1;" d="M 15.375 15 C 15.417969 15.011719 15.457031 15.019531 15.5 15.03125 C 15.488281 15.082031 15.480469 15.132812 15.46875 15.1875 C 15.4375 15.199219 15.40625 15.207031 15.375 15.21875 C 15.375 15.148438 15.375 15.074219 15.375 15 Z M 15.375 15 "/>
<path style=" stroke:none;fill-rule:nonzero;fill:rgb(5.882353%,0%,3.137255%);fill-opacity:1;" d="M 13.46875 15.1875 C 13.539062 15.273438 13.589844 15.332031 13.625 15.4375 C 13.574219 15.4375 13.519531 15.4375 13.46875 15.4375 C 13.46875 15.355469 13.46875 15.273438 13.46875 15.1875 Z M 13.46875 15.1875 "/>
<path style=" stroke:none;fill-rule:nonzero;fill:rgb(64.313728%,30.588236%,22.745098%);fill-opacity:1;" d="M 14.8125 14.71875 C 14.878906 14.75 14.878906 14.75 14.9375 14.78125 C 14.90625 14.78125 14.875 14.78125 14.84375 14.78125 C 14.824219 14.84375 14.800781 14.90625 14.78125 14.96875 C 14.71875 14.875 14.71875 14.875 14.726562 14.808594 C 14.75 14.75 14.75 14.75 14.8125 14.71875 Z M 14.8125 14.71875 "/>
<path style=" stroke:none;fill-rule:nonzero;fill:rgb(99.607843%,72.549021%,29.411766%);fill-opacity:1;" d="M 15.9375 14.65625 C 15.988281 14.65625 16.039062 14.65625 16.09375 14.65625 C 16.09375 14.675781 16.09375 14.699219 16.09375 14.71875 C 16.125 14.71875 16.15625 14.71875 16.1875 14.71875 C 16.1875 14.738281 16.1875 14.761719 16.1875 14.78125 C 16.136719 14.78125 16.085938 14.78125 16.03125 14.78125 C 16.03125 14.761719 16.03125 14.738281 16.03125 14.71875 C 16 14.71875 15.96875 14.71875 15.9375 14.71875 C 15.9375 14.699219 15.9375 14.675781 15.9375 14.65625 Z M 15.9375 14.65625 "/>
<path style=" stroke:none;fill-rule:nonzero;fill:rgb(18.039216%,16.862746%,38.431373%);fill-opacity:1;" d="M 13.3125 15.5625 C 13.324219 15.59375 13.332031 15.625 13.34375 15.65625 C 13.3125 15.6875 13.3125 15.6875 13.21875 15.6875 C 13.171875 15.6875 13.171875 15.6875 13.125 15.6875 C 13.125 15.667969 13.125 15.644531 13.125 15.625 C 13.1875 15.605469 13.25 15.582031 13.3125 15.5625 Z M 13.3125 15.5625 "/>
<path style=" stroke:none;fill-rule:nonzero;fill:rgb(78.823531%,37.64706%,16.862746%);fill-opacity:1;" d="M 16.8125 14.96875 C 16.882812 14.96875 16.957031 14.96875 17.03125 14.96875 C 17.03125 15.011719 17.03125 15.050781 17.03125 15.09375 C 16.96875 15.074219 16.90625 15.054688 16.84375 15.03125 C 16.832031 15.011719 16.824219 14.988281 16.8125 14.96875 Z M 16.8125 14.96875 "/>
<path style=" stroke:none;fill-rule:nonzero;fill:rgb(56.078434%,29.411766%,32.941177%);fill-opacity:1;" d="M 17.4375 14.75 C 17.5 14.75 17.5625 14.75 17.625 14.75 C 17.625 14.78125 17.625 14.8125 17.625 14.84375 C 17.5625 14.84375 17.5 14.84375 17.4375 14.84375 C 17.4375 14.8125 17.4375 14.78125 17.4375 14.75 Z M 17.4375 14.75 "/>
<path style=" stroke:none;fill-rule:nonzero;fill:rgb(74.509805%,40.392157%,19.215687%);fill-opacity:1;" d="M 16.6875 15.3125 C 16.738281 15.324219 16.789062 15.332031 16.84375 15.34375 C 16.832031 15.375 16.824219 15.40625 16.8125 15.4375 C 16.761719 15.449219 16.710938 15.457031 16.65625 15.46875 C 16.667969 15.417969 16.675781 15.367188 16.6875 15.3125 Z M 16.6875 15.3125 "/>
<path style=" stroke:none;fill-rule:nonzero;fill:rgb(96.470588%,78.823531%,47.058824%);fill-opacity:1;" d="M 16.65625 15.1875 C 16.75 15.199219 16.75 15.199219 16.84375 15.21875 C 16.855469 15.238281 16.863281 15.261719 16.875 15.28125 C 16.792969 15.292969 16.710938 15.300781 16.625 15.3125 C 16.636719 15.269531 16.644531 15.230469 16.65625 15.1875 Z M 16.65625 15.1875 "/>
<path style=" stroke:none;fill-rule:nonzero;fill:rgb(94.901961%,64.705884%,30.980393%);fill-opacity:1;" d="M 16.65625 15 C 16.75 15.015625 16.75 15.015625 16.84375 15.03125 C 16.84375 15.0625 16.84375 15.09375 16.84375 15.125 C 16.792969 15.125 16.742188 15.125 16.6875 15.125 C 16.675781 15.082031 16.667969 15.042969 16.65625 15 Z M 16.65625 15 "/>
<path style=" stroke:none;fill-rule:nonzero;fill:rgb(54.509807%,25.490198%,25.490198%);fill-opacity:1;" d="M 14.53125 14.6875 C 14.574219 14.707031 14.613281 14.730469 14.65625 14.75 C 14.636719 14.792969 14.613281 14.832031 14.59375 14.875 C 14.574219 14.875 14.550781 14.875 14.53125 14.875 C 14.53125 14.855469 14.53125 14.832031 14.53125 14.8125 C 14.511719 14.800781 14.488281 14.792969 14.46875 14.78125 C 14.488281 14.75 14.511719 14.71875 14.53125 14.6875 Z M 14.53125 14.6875 "/>
</g>
</svg>
